<?xml version="1.0" encoding="utf-8"?>
<!-- Generator: Adobe Illustrator 25.4.0, SVG Export Plug-In . SVG Version: 6.00 Build 0)  -->
<svg version="1.0" id="Layer_1" xmlns="http://www.w3.org/2000/svg" xmlns:xlink="http://www.w3.org/1999/xlink" x="0px" y="0px"
	 viewBox="0 0 160 160" style="enable-background:new 0 0 160 160;" xml:space="preserve">
<style type="text/css">
	.st0{fill:#FFFFFF;}
	.st1{clip-path:url(#SVGID_00000080917809960545897680000013729541588553902007_);}
	.st2{fill-rule:evenodd;clip-rule:evenodd;}
</style>
<path d="M87.8,151.1c-0.1,0.6-0.1,5.4,0,5.7h1v-5.7H87.8z M146.6,151.1C146.6,151.1,146.6,151.1,146.6,151.1l-0.5,0
	c-0.2,0-0.3,0-0.5,0v5.7h1c0,0,0,0,0-0.1c0,0,0,0,0-0.1c0-0.2,0-0.4,0-0.7c0-0.2,0-0.5,0-0.8C146.7,153.6,146.6,151.3,146.6,151.1z
	 M40.6,151.1h-1c-0.1,0.6-0.1,5.4,0,5.7c0,0,0,0,0,0h1v0C40.7,156.5,40.7,151.5,40.6,151.1z M27.2,154c0-0.5,0-1,0-1.5
	c0-0.2,0-0.5,0-0.7c0-0.2,0-0.4,0-0.6h-1.1c-0.1,0.6-0.1,5.4,0,5.7h1.1C27.2,155.9,27.2,154.9,27.2,154z M96.6,151.1h-1v5.7h1.1
	c0,0,0,0,0,0C96.7,156.2,96.7,151.5,96.6,151.1z M76.6,127L76.6,127c0,1.1,0,2.2,0,3.3h2V127C78.2,126.9,77,126.9,76.6,127z
	 M62.7,155.9c0-0.3,0-0.5,0-0.8c0-0.3,0-0.6,0-0.9c0-1,0-2.1,0-3.1h-1v0c0,0.1,0,0.4-0.1,0.9c0,1.5,0,4.5,0.1,4.8h3.9v-0.9H62.7z
	 M48.6,155.9v-4.7c-0.4-0.1-0.8-0.1-1.1,0c-0.1,0.9,0,5.3,0,5.6h3.9v-0.9H48.6z M76.9,151.1v0.9c0.1,0,0.2,0,0.3,0
	c0.5,0,1,0,1.4,0.1v4.8h1.1v-4.7c0,0,0,0,0,0c0.6-0.1,1.1,0,1.7-0.1v-0.9H76.9z M126.7,151.1c-0.1,0-0.2,0-0.3,0c0,0-0.1,0-0.1,0
	c-0.3,0-0.6,0-0.9,0c-0.8,0-1.6,0-2.1,0.1c-0.1,0-0.1,0-0.2,0c-0.1,0-0.2,0-0.2,0h0v0.9h1.7v4.8h1.1v-3.2c0-0.3,0-0.5,0-0.8
	c0-0.3,0-0.5,0-0.8h1.6v-0.9C127.2,151.2,127,151.1,126.7,151.1z M24.3,151.1c-0.4,1.4-0.9,2.8-1.4,4.1h-0.1
	c-0.5-1.4-0.9-2.8-1.4-4.2h-0.9c0,0-0.1,0-0.2,0c0,0-0.1,0-0.1,0h0c0.7,1.9,1.3,3.8,2,5.7h1.3v0c0.7-1.9,1.3-3.8,2-5.7H24.3z
	 M7.3,151.4c-0.1-0.1-0.3-0.1-0.5-0.2c-0.2,0-0.4-0.1-0.6-0.1c-0.7,0-1.5,0-2.2,0c-0.1,0-0.2,0-0.3,0c-0.1,0.4-0.1,5.4,0,5.7h1.1
	v-2.2c0.3,0,0.5,0,0.8,0c0.4,0,0.9,0,1.3-0.1c0.7-0.1,1.1-0.7,1.2-1.3C8.2,152.5,8,151.8,7.3,151.4z M6.3,153.7
	c-0.5,0.1-1,0.1-1.5,0v-1.6c0.5,0,1-0.1,1.5,0.1c0.4,0.1,0.5,0.4,0.5,0.8C6.9,153.3,6.7,153.6,6.3,153.7z M57.9,127.1
	c-0.4,0.3-0.8,0.5-1.2,0.8c-0.4,0.2-0.8,0.4-1.3,0.6c0.1-0.2,0.1-0.3,0.2-0.4c0.2-0.4,0.2-0.8,0.2-1.3c-0.1-0.8-0.6-1.3-1.5-1.3
	c-0.1,0-0.2,0-0.4,0c-0.7,0.1-1.3,0.6-1.3,1.3c-0.1,0.8,0.3,1.4,1,1.7c0.1,0,0.2,0.1,0.3,0.1c-0.3,0.4-0.7,0.5-1.1,0.8
	c0.2,0.3,0.4,0.7,0.6,1.1c1.8-0.5,3.5-1.2,5.1-2.3C58.3,127.7,58.1,127.4,57.9,127.1z M54.2,127.6c-0.4,0-0.6-0.2-0.7-0.6
	c0-0.4,0.3-0.7,0.6-0.7c0.4,0,0.7,0.3,0.7,0.6C54.9,127.3,54.6,127.6,54.2,127.6z M114.7,151.1h-1.2c-0.4,0.6-2.2,5.4-2.2,5.7h1.1
	c0.2-0.4,0.3-0.8,0.5-1.3h2c0.4,0,0.4,0,0.5,0.4c0.1,0.3,0.2,0.6,0.3,0.9h1.2C116.2,154.9,115.4,153,114.7,151.1z M113.2,154.6
	c0.2-0.7,0.5-1.4,0.7-2.1h0.1c0.2,0.7,0.5,1.3,0.8,2C114.3,154.7,113.8,154.6,113.2,154.6z M44.6,151.1h-1.2
	c-0.7,1.9-1.5,3.8-2.2,5.7h1.2c0.2-0.4,0.3-0.9,0.5-1.3h2.4c0.2,0.4,0.3,0.9,0.5,1.3h1.2C46.1,154.9,45.3,153,44.6,151.1z
	 M43.2,154.6c0-0.3,0.4-1.5,0.7-2.1c0.3,0.7,0.5,1.3,0.8,2.1H43.2z M131.5,151.1c-0.1,0.8,0,1.5-0.1,2.3h-1.2c-0.4,0-0.7,0-1.1,0
	c0-0.4,0-0.8,0-1.2c0-0.4,0.1-0.7-0.1-1.1h-1c0,0,0,0.1,0,0.1c0,0,0,0.1,0,0.1c0,0.1,0,0.2,0,0.2c0,0.1,0,0.2,0,0.3
	c0,0.8,0,2.1,0,3.1c0,0.5,0,1,0,1.3c0,0.1,0,0.1,0,0.1c0,0.2,0,0.3,0,0.4h1c0-0.1,0-0.3,0-0.4c0-0.1,0-0.3,0-0.4c0-0.5,0-1.1,0-1.7
	c0.8,0,1.5,0,2.2,0c0.1,0.9,0,1.7,0.1,2.5h0.5c0.2,0,0.3,0,0.5,0h0v-5.7H131.5z M67.5,155.9c-0.1-0.4-0.1-0.8,0-1.2
	c0-0.1,0-0.1,0-0.2c0-0.1,0-0.2,0.1-0.3h2.8v-0.9h-1.4c-0.5,0-1,0-1.4,0c0-0.5,0-0.9,0-1.3h1.1c0.3,0,0.7,0,1,0c0.3,0,0.7,0.1,1-0.1
	v-0.8h-4.2v5.7h4.3v-0.9H67.5z M60.6,156c-1.1,0-2.1,0-3.2,0c0-0.5,0-1,0-1.6h2.8v-0.9h-1.4c-0.5,0-0.9,0-1.4,0c0-0.5,0-0.9,0-1.3
	h3.1v-0.9h0c-0.5-0.1-3.9-0.1-4.2,0c-0.1,0.5-0.1,5.2,0,5.7c0,0,0,0,0,0h4.3L60.6,156L60.6,156z M85.3,154.4
	c0.2-0.1,0.4-0.2,0.6-0.2c0.6-0.3,0.9-0.9,0.8-1.6c-0.1-0.7-0.5-1.2-1.2-1.3c-0.3,0-0.5-0.1-0.8-0.1c-0.8,0-1.5,0-2.3,0
	c-0.1,0-0.2,0-0.3,0c-0.1,0.6-0.1,5.4,0,5.7h1v-2.3c0.6-0.1,1.1,0,1.4,0.5c0.4,0.5,0.7,1.1,1.1,1.6c0.1,0.1,0.2,0.2,0.3,0.3
	c0.4,0,0.7,0,1.2,0C86.6,156,86.2,155,85.3,154.4z M83.2,153.6v-1.5c0.6,0,1.2,0,1.8,0c0.3,0,0.6,0.3,0.6,0.7c0,0.4-0.2,0.7-0.5,0.7
	C84.5,153.6,83.9,153.6,83.2,153.6z M32.7,151.9c0-0.1,0-0.1,0-0.2c0-0.3,0-0.5,0-0.6v0h-1v3.7c0,0-0.1,0-0.1,0c0,0,0,0,0,0
	c-0.1-0.1-0.2-0.3-0.3-0.4c-0.6-1-1.2-2-1.8-3c-0.1-0.1-0.1-0.2-0.2-0.3c0,0-0.1,0-0.1,0h-0.9c-0.1,0.7-0.1,5.4,0,5.7c0,0,0,0,0,0h1
	c0-0.2,0-0.4,0-0.5v-2.7c0-0.1,0-0.2,0.1-0.4c0,0,0.1,0.1,0.1,0.1c0.1,0.1,0.2,0.2,0.2,0.3c0.6,1,1.2,1.9,1.8,2.9c0,0,0,0,0,0
	c0,0.1,0.1,0.1,0.1,0.2s0.1,0.1,0.2,0.1c0,0,0,0,0,0c0.3,0,0.7,0.1,1,0c0,0,0-0.1,0-0.2C32.8,155.8,32.8,153.3,32.7,151.9z
	 M12.3,154.4C12.3,154.4,12.3,154.3,12.3,154.4c0.1-0.1,0.3-0.2,0.4-0.2c0.7-0.3,1.1-0.9,1-1.7c-0.1-0.8-0.5-1.3-1.3-1.3
	c-1.1-0.1-2.2,0-3.3-0.1c0,0,0,0-0.1,0.1v5.7h1.1v-2.3c0.7-0.2,1.1,0.1,1.5,0.6c0.2,0.3,0.4,0.6,0.6,0.9c0.2,0.3,0.4,0.7,0.7,0.9
	c0.3,0.1,0.7,0,1.1,0c0,0,0,0,0.2,0C13.5,156,13.1,155,12.3,154.4z M11.9,153.5c-0.6,0-1.1,0.1-1.8,0.1v-1.5c0.2,0,0.3,0,0.4,0
	c0.4,0,0.9,0,1.3,0c0.4,0,0.6,0.3,0.6,0.7C12.5,153.2,12.3,153.5,11.9,153.5z M143.1,154.4c0.2-0.1,0.3-0.1,0.5-0.2
	c0.7-0.3,1-0.9,1-1.7c-0.1-0.7-0.5-1.2-1.3-1.3c-1.1-0.1-2.2,0-3.3-0.1c0,0-0.1,0-0.1,0.1v5.7h1.1v-2.3c0.7-0.2,1.1,0,1.5,0.6
	c0.3,0.5,0.7,1,1,1.5c0.1,0.1,0.2,0.3,0.3,0.3c0.4,0,0.7,0,1.2,0C144.4,156,144,155,143.1,154.4z M141,153.5v-1.5c0.6,0,1.2,0,1.8,0
	c0.4,0.1,0.5,0.3,0.5,0.7c0,0.4-0.2,0.6-0.5,0.7C142.5,153.6,141.5,153.6,141,153.5z M106.5,151.1c-0.1,0-0.1,0-0.2,0
	c-0.2,0-0.4,0.1-0.5,0.3c-0.3,0.5-0.6,1.1-0.9,1.6c-0.1,0.1-0.1,0.2-0.3,0.4c0,0,0,0,0,0c-0.4-0.6-0.7-1.2-1-1.7
	c-0.1-0.2-0.2-0.4-0.3-0.5c0,0,0,0,0,0h-5.9v0.9H99v4.3c0,0.2,0,0.3,0,0.5h1.1v-3.2c0-0.5,0-1,0-1.6v0h1.7c0-0.3,0-0.5,0.1-0.8
	c0.1,0.1,0.1,0.1,0.1,0.1c0,0,0,0,0,0c0.6,1,1.2,2,1.8,2.9c0.1,0.1,0.1,0.3,0.1,0.5v1.7c0,0.1,0,0.3,0,0.4h0.5c0.2,0,0.3,0,0.5,0
	c0-0.7,0-1.3,0-1.9c0-0.3,0.1-0.6,0.2-0.8c0.5-0.8,1.1-1.7,1.6-2.5c0.1-0.1,0.1-0.3,0.3-0.5C106.9,151.1,106.7,151.1,106.5,151.1z
	 M155.9,151.1L155.9,151.1c0,0.1-0.1,0.2-0.1,0.3c-0.2,0.3-0.3,0.6-0.5,0.9c0,0.1-0.1,0.1-0.1,0.2c-0.2,0.3-0.3,0.6-0.6,1
	c-0.4-0.7-0.8-1.3-1.1-1.9v0c0-0.1-0.1-0.1-0.1-0.2c0,0-0.1-0.1-0.1-0.1c-0.1-0.1-0.2-0.1-0.4-0.1c-1.7,0-3.4,0-5.1,0
	c-0.1,0-0.3,0-0.4,0v0.9c0.6,0,1.1,0,1.7,0.1v4.8h1.1v-4.7c0.6-0.1,1.1,0,1.7-0.1c0-0.3,0-0.5,0-0.8l0,0c0.1,0,0.1,0.1,0.1,0.1
	c0,0,0,0,0.1,0c0,0,0,0,0,0c0.6,1,1.2,1.9,1.8,2.9c0,0.1,0.1,0.1,0.1,0.2c0,0.1,0,0.2,0,0.2c0,0.6,0,1.2,0,1.8c0,0.1,0,0.2,0,0.3
	h1.1c0-0.1,0-0.2,0-0.2c0-0.1,0-0.2,0-0.2v-0.7c0-0.2,0-0.5,0-0.7c0-0.4,0.1-0.7,0.3-1c0.5-0.8,1.1-1.7,1.6-2.5
	c0.1-0.1,0.1-0.2,0.2-0.4v0H155.9z M124,127.9c-0.7-0.4-1.5-0.5-2.3-0.4c-0.6,0.1-1.2,0.3-1.7,0.6c-0.6,0.3-1.2,0.7-1.9,1
	c-0.1,0-0.2,0.1-0.2,0.2v1.6h8.8v-1.5C125.7,128.9,124.8,128.4,124,127.9z M120.4,129.6c0.5-0.5,1.1-0.8,1.7-0.8
	c0.7,0,1.3,0.3,1.8,0.7C123.7,129.7,121.1,129.7,120.4,129.6z M114.5,143.5h-1.8v3.5c-0.5,0.1-1.7,0.1-2.1,0c0-0.4,0-0.8,0-1.1
	c0-0.4,0-0.8-0.1-1.2c-0.2-0.8-0.7-1.2-1.5-1.2c-0.2,0-0.5,0-0.7,0.1c-0.7,0.2-1.2,0.8-1.2,1.6c0,0.8,0.4,1.3,1.2,1.5
	c0.1,0,0.3,0,0.5,0.1v1.5c1,0,2,0,2.9,0c1,0,1.9,0,2.9,0C114.6,147.4,114.6,143.9,114.5,143.5z M108.8,145.8c-0.4,0-0.7-0.2-0.7-0.6
	c0-0.4,0.3-0.6,0.6-0.7c0.4,0,0.7,0.3,0.6,0.6C109.5,145.5,109.2,145.7,108.8,145.8z M68.5,134.8c0-0.1,0-0.3-0.1-0.4
	c0-0.1-0.1-0.2-0.1-0.3c0-0.1-0.1-0.2-0.1-0.2c-0.1-0.2-0.2-0.3-0.3-0.5c0,0,0,0-0.1-0.1c-0.1-0.1-0.2-0.2-0.3-0.3
	c-0.1-0.1-0.2-0.1-0.3-0.2c-0.2-0.1-0.5-0.2-0.8-0.3c-1.1-0.3-2.3-0.3-3.4,0.1c0,0-0.1,0-0.2,0.1c0,0-0.1,0-0.2,0.1
	c-0.1,0-0.1,0.1-0.2,0.1c-0.1,0-0.1,0.1-0.2,0.1c-0.1,0.1-0.3,0.2-0.4,0.3c-0.1,0.1-0.1,0.1-0.2,0.2c-0.1,0.1-0.2,0.2-0.2,0.3
	c0,0.1-0.1,0.1-0.1,0.2c0,0,0,0,0,0c0,0.1-0.1,0.2-0.1,0.3c0,0,0,0,0,0c0,0,0,0.1-0.1,0.1c-0.1,0.2-0.1,0.3-0.2,0.5
	c0,0.1-0.1,0.2-0.1,0.4c0,0,0,0.1,0,0.1c0,0.2,0,0.3,0,0.5c0,0.2,0,0.4,0,0.6v0h1.9v0c0-0.2,0-0.3,0-0.4c0-0.3,0-0.6,0.1-0.8
	c0.1-0.2,0.2-0.4,0.3-0.6c0.2-0.2,0.3-0.3,0.6-0.4c0.3-0.1,0.6-0.1,1-0.1c0.1,0,0.1,0,0.2,0c0,0,0.1,0,0.2,0c0,0,0,0,0.1,0
	c0,0,0,0,0.1,0c0.2,0,0.3,0.1,0.5,0.2c0.1,0,0.1,0.1,0.2,0.2c0,0,0.1,0.1,0.1,0.1c0,0,0,0.1,0.1,0.1c0.1,0.1,0.1,0.2,0.1,0.3
	c0,0,0,0.1,0,0.1c0,0,0,0,0,0c0,0.1,0,0.2,0,0.2c0,0.2,0,0.3,0,0.5v6.1c0,0.2,0,0.4,0,0.6h2.1v-6.9
	C68.5,135.4,68.5,135.1,68.5,134.8z M20.9,135c0-0.1,0-0.3-0.1-0.4c0,0,0-0.1,0-0.1c0,0,0-0.1,0-0.1c0-0.1,0-0.2-0.1-0.3
	c0,0,0-0.1,0-0.1c0-0.1-0.1-0.2-0.2-0.3c-0.1-0.1-0.1-0.2-0.2-0.3c0,0-0.1-0.1-0.1-0.1c-0.1-0.1-0.2-0.2-0.3-0.3
	c-0.1,0-0.1-0.1-0.2-0.1c-0.1-0.1-0.2-0.1-0.2-0.1c-0.1,0-0.2-0.1-0.2-0.1c0,0-0.1,0-0.1,0c0,0-0.1,0-0.1,0c-0.1,0-0.3-0.1-0.4-0.1
	c-0.3-0.1-0.7-0.1-1-0.1c-0.8,0-1.6,0.1-2.4,0.4c-1.3,0.5-2.1,2-1.8,3.7h1.9c0-0.3,0-0.5,0-0.7c0-0.1,0-0.2,0.1-0.4
	c0-0.1,0.1-0.2,0.1-0.3c0-0.1,0.1-0.2,0.1-0.2c0,0,0-0.1,0.1-0.1c0-0.1,0.1-0.1,0.1-0.2c0,0,0.1-0.1,0.2-0.1c0,0,0,0,0,0
	c0.1,0,0.2-0.1,0.2-0.1c0.1,0,0.1,0,0.2-0.1c0.1,0,0.2,0,0.2,0c0.1,0,0.2,0,0.3,0c0,0,0.1,0,0.1,0c0,0,0.1,0,0.1,0
	c0.1,0,0.2,0,0.3,0c0.1,0,0.2,0,0.3,0c0.1,0,0.2,0.1,0.3,0.1c0,0,0.1,0,0.1,0.1c0.2,0.1,0.3,0.2,0.4,0.4c0.1,0.1,0.1,0.2,0.1,0.3
	c0,0.1,0,0.2,0,0.3c0,0.1,0,0.2,0,0.4c0,2.1,0,4.2,0,6.3v0.6c0.7,0,1.4,0,2.1,0c0-0.2,0-0.3,0-0.4v-6.6
	C20.9,135.4,20.9,135.2,20.9,135z M147.1,135.8c0-0.3,0-0.7-0.1-1.1c-0.1-0.5-0.2-1-0.5-1.4c-0.1-0.1-0.1-0.2-0.2-0.3
	c-0.1-0.1-0.2-0.1-0.3-0.2c0,0,0,0,0,0c0,0-0.1,0-0.1-0.1l0,0c0,0-0.1-0.1-0.2-0.1c-0.1,0-0.1-0.1-0.2-0.1c0,0-0.1,0-0.1-0.1
	c-0.1,0-0.3-0.1-0.4-0.1c-0.8-0.2-1.6-0.2-2.4-0.1c-0.1,0-0.2,0-0.3,0.1c-0.2,0-0.4,0.1-0.6,0.2c-0.2,0.1-0.3,0.1-0.5,0.2
	c-0.1,0.1-0.2,0.1-0.3,0.2c-0.1,0.1-0.2,0.1-0.2,0.2c-0.1,0.1-0.2,0.2-0.3,0.3c-0.1,0.1-0.1,0.1-0.2,0.2c-0.1,0.1-0.1,0.2-0.2,0.2
	c-0.1,0.2-0.2,0.3-0.2,0.5c-0.2,0.5-0.3,1.2-0.2,1.9h0c0.3,0,0.9,0.1,1.3,0c0.1,0,0.2,0,0.3,0c0,0,0.1,0,0.1,0c0,0,0,0,0.1,0
	c0.1,0,0.1,0,0.2,0c0-0.3,0-0.6,0.1-0.9c0.1-0.4,0.2-0.7,0.5-0.9c0.1-0.1,0.2-0.2,0.3-0.2c0,0,0.1,0,0.1,0c0.1,0,0.1,0,0.2-0.1
	c0.1,0,0.2,0,0.3,0c0.1,0,0.2,0,0.4,0c1.2,0,1.7,0.6,1.6,1.7c0,2.1,0,4.2,0,6.3v0.6h2.1V142C147.1,140,147.1,137.9,147.1,135.8z
	 M88.8,135c-0.1-1.2-0.8-2.2-2-2.5c-1.3-0.4-2.7-0.4-4,0.1c-1.3,0.4-2,1.4-2.2,2.7c0,0.3-0.1,0.6,0,1h1.9c0-0.2,0-0.4,0.1-0.5
	c0.1-0.7,0.4-1.3,1.2-1.6c0.6-0.2,1.3-0.2,1.9,0c0.6,0.2,1,0.6,1.1,1.2c0,0.9,0,1.8,0,2.7c-0.4,0-0.8,0.1-1.1,0.1
	c-1,0.2-1.6,1-1.7,1.9c-0.1,1.1,0.4,2,1.3,2.4c0.7,0.3,1.5,0.3,2.2,0c0.5-0.2,0.9-0.6,1.1-1.2c0.2-0.4,0.2-0.9,0.2-1.3v-3.6
	C88.8,135.9,88.8,135.5,88.8,135z M86.3,141.2c-0.5,0-0.8-0.4-0.8-0.9c0-0.5,0.4-0.9,0.9-0.9c0.5,0,0.8,0.4,0.8,0.8
	C87.2,140.8,86.8,141.2,86.3,141.2z M36.4,139.7c-0.1-0.6-0.4-1-1-1.3c-0.4-0.2-0.8-0.3-1.2-0.3h-0.6v-9.1c0-0.2,0-0.3,0-0.5
	c-0.1-1-0.8-1.9-1.8-2.1c-0.3-0.1-0.5,0-0.8,0.2c-0.3,0.3-0.7,0.6-1,1c-0.6-0.4-1.2-0.8-1.9-1.1c0,0.7,0,1.2,0,1.8
	c0,0.1,0.1,0.2,0.2,0.3c0.4,0.2,0.7,0.4,1.1,0.7c0.2,0.1,0.5,0.3,0.7,0.4c0.3-0.3,0.6-0.6,0.9-0.9c0.2-0.2,0.4-0.1,0.5,0.2
	c0,0.2,0,0.3,0,0.5v10.5c0,0.2,0,0.4,0,0.6c0.1,1.3,0.8,2.1,2.1,2.2C35.5,142.8,36.7,141.5,36.4,139.7z M34.1,141.2
	c-0.5,0-0.9-0.4-0.9-0.9c0-0.5,0.4-0.9,0.9-0.8c0.5,0,0.9,0.4,0.9,0.9C34.9,140.8,34.5,141.2,34.1,141.2z M29.6,135.8
	c0-0.2,0-0.3,0-0.5h-1.7c-0.6,0-1.1,0-1.7,0c-0.5,0-1.1,0-1.6,0c0-0.6,0.3-1,0.9-1.1c0.3,0,0.7,0,1,0c0.5,0.1,1.1,0.2,1.6,0.3
	c0.5,0.1,1,0.1,1.5-0.2v-1.9c-0.7,0.2-1.3,0.2-1.9,0.1c-0.9-0.1-1.7-0.2-2.6-0.1c-1.2,0.1-2.2,0.8-2.7,1.9c-0.3,0.7-0.5,1.5-0.5,2.3
	c0,0.3,0,0.5,0,0.8h2.2c0.1,0,0.2,0,0.2-0.1c0.2-0.4,0.6-0.4,0.9-0.4c0.6,0,1.3,0,1.9,0c0.1,0,0.2,0,0.4,0v1.2c-0.3,0-0.5,0-0.7,0
	c-1.1,0.1-2,0.9-2.1,2c-0.1,1.3,0.5,2.2,1.6,2.5c0.6,0.2,1.2,0.2,1.7,0c0.7-0.2,1.1-0.6,1.3-1.3c0.1-0.4,0.2-0.8,0.2-1.2
	C29.7,138.6,29.6,137.2,29.6,135.8z M27.1,141.2c-0.5,0-0.8-0.4-0.8-0.9s0.4-0.9,0.9-0.9c0.5,0,0.9,0.4,0.9,0.8
	C28,140.8,27.6,141.2,27.1,141.2z M138.3,135.1c0-0.8-0.4-1.4-1-1.9c-0.5-0.4-1-0.6-1.6-0.8c-1.8-0.4-3.5-0.1-5.1,0.9
	c-0.4,0.3-0.9,0.5-1.4,0.7c-0.1,0-0.2,0.1-0.2,0.1v1.8c0.5,0,1,0.1,1.5,0.1c0.1,0.5,0.1,1.5,0,1.9c-0.2,0-0.4,0-0.6,0
	c-0.7,0-1.3,0.3-1.7,0.9c-0.8,1.1-0.6,3.2,1.4,3.6c0.1,0,0.2,0,0.2,0c1.5,0.2,2.6-0.6,2.8-2.1c0-0.2,0-0.3,0-0.5v-4.7
	c0-0.1,0-0.3,0-0.4c-0.4,0-0.7-0.1-1.1-0.2c0.1-0.1,0.1-0.1,0.2-0.2c0.6-0.4,1.2-0.6,1.9-0.7c0.6-0.1,1.1,0,1.6,0.2
	c0.6,0.2,0.9,0.7,0.9,1.4v7.1h2.1c0-0.1,0-0.2,0-0.2C138.3,139.9,138.3,137.5,138.3,135.1z M130.1,141.2c-0.5,0-0.8-0.4-0.8-0.9
	c0-0.5,0.4-0.9,0.9-0.9c0.5,0,0.8,0.4,0.8,0.9C131,140.8,130.6,141.2,130.1,141.2z M114.5,135.2c0-0.2,0-0.3-0.1-0.5
	c-0.3-1.2-1.1-1.8-2.1-2.1c-1.7-0.5-3.3-0.4-4.9,0.5c-0.7,0.4-1.4,0.9-2.2,1.2v1.9c0.5,0,1,0.1,1.5,0.1v1.9c-0.3,0-0.5,0-0.7,0
	c-1.2,0.1-1.9,0.9-2.1,2.1c-0.1,1.1,0.5,2,1.6,2.3c0.4,0.1,0.7,0.1,1.1,0.1c1.1-0.1,1.9-0.7,2.1-1.7c0.1-0.3,0.1-0.6,0.1-0.9
	c0-1.6,0-3.2,0-4.8c0-0.1,0-0.2,0-0.3c-0.4-0.1-0.7-0.1-1.1-0.2c0-0.1,0-0.1,0-0.1c1-0.6,2-1,3.2-0.8c1,0.2,1.4,0.7,1.4,1.7
	c0,2.1,0,4.3,0,6.4v0.5c0.6,0.1,1.7,0.1,2.1,0c0-0.1,0-0.1,0-0.2C114.5,139.9,114.5,137.5,114.5,135.2z M106.4,141.2
	c-0.5,0-0.9-0.3-0.9-0.9c0-0.5,0.4-0.9,0.9-0.9c0.5,0,0.8,0.3,0.9,0.8C107.2,140.8,106.8,141.2,106.4,141.2z M100.6,138.2
	c-0.1,0-0.3,0-0.5,0v-5.7c-0.5-0.1-1.7-0.1-2.1,0v0.5c0,1.7,0,3.3,0,5c0,0.3-0.1,0.5-0.3,0.6c-0.9,0.5-1.8,1.1-2.7,1.7
	c-0.1,0.1-0.2,0.1-0.4,0.2c0-0.2,0-0.4,0-0.5c0-1.6,0-3.2,0-4.8c0-0.3,0-0.5,0-0.8c-0.1-0.6-0.3-1.2-0.8-1.6
	c-0.4-0.3-0.9-0.5-1.4-0.5c-1.5-0.1-2.9,0.7-2.8,2.5c0.1,0.9,0.5,1.6,1.4,1.9c0.3,0.1,0.7,0.1,1,0.1c0.1,0,0.2,0,0.4,0v5.7
	c0.7,0,1.3,0,2,0c0.3,0,0.5-0.1,0.8-0.2c0.8-0.5,1.5-1,2.3-1.5c0.1-0.1,0.2-0.1,0.3-0.2c0,0.1,0,0.2,0.1,0.3
	c0.4,1.5,2.3,2.3,3.6,1.5c0.7-0.4,1-1.1,1.1-1.8C102.9,139.3,102,138.2,100.6,138.2z M92.1,135.5c-0.5,0-0.9-0.4-0.9-0.9
	c0-0.5,0.4-0.9,0.9-0.9c0.5,0,0.9,0.4,0.8,0.9C93,135.1,92.6,135.5,92.1,135.5z M100.5,141.3c-0.5,0-0.8-0.4-0.8-0.8
	c0-0.5,0.4-0.8,0.9-0.8c0.5,0,0.8,0.4,0.8,0.8C101.3,141,101,141.3,100.5,141.3z M124.6,132.4v5.4c0,0.9,0,1.8,0,2.7
	c-0.2-0.1-0.3-0.2-0.4-0.2c-0.8-0.5-1.5-1-2.2-1.5c-0.2-0.2-0.3-0.3-0.3-0.6c0-1.1,0-2.1,0-3.2c0-0.4-0.1-0.8-0.2-1.2
	c-0.2-0.7-0.7-1.1-1.4-1.3c-0.5-0.2-1-0.2-1.6-0.1c-1.1,0.2-1.8,1.1-1.8,2.2c0,1.2,0.6,2,1.7,2.2c0.2,0.1,0.5,0,0.7,0.1
	c0.1,0,0.2,0,0.4,0c0,0.4,0.1,0.7,0,1.1c-0.2,0-0.3,0-0.4,0c-1.4-0.1-2.3,0.7-2.5,1.8c-0.3,1.3,0.4,2.5,1.6,2.9
	c1.3,0.4,2.8-0.2,3.2-1.4c0-0.1,0.1-0.3,0.2-0.4c0.5,0.3,0.9,0.6,1.3,0.9c0.4,0.3,0.8,0.7,1.3,0.8c0.5,0.2,1.1,0.1,1.6,0.1
	c0.3,0,0.6,0,0.9,0v-10.2H124.6z M118.9,141.1c-0.5,0-0.9-0.4-0.9-0.9c0-0.5,0.3-0.8,0.8-0.9c0.5,0,0.9,0.4,0.9,0.9
	C119.8,140.7,119.4,141.1,118.9,141.1z M119.1,135.5c-0.5,0-0.9-0.4-0.9-0.9c0-0.5,0.4-0.8,0.9-0.8c0.5,0,0.9,0.4,0.9,0.9
	C120,135.1,119.6,135.5,119.1,135.5z M79.8,136.3c0.1-1.2-0.4-2.2-1.3-3c-0.1-0.1-0.2-0.2-0.3-0.2c0.4-0.6,0.8-1.1,1.2-1.7
	c-0.8,0-1.4,0-2.1,0c-0.5,0-0.9,0.1-1.1,0.6c-0.2,0.4-0.4,0.4-0.8,0.4c-1.2-0.1-2.4,0-3.5,0.5c-1.1,0.4-1.8,1.2-2.2,2.3
	c-0.1,0.2-0.1,0.3-0.1,0.5h2.1c0.3-0.7,0.9-1.2,1.6-1.4c0.9-0.3,1.8-0.3,2.7,0c0.8,0.2,1.3,0.7,1.5,1.5c0.2,0.7,0.2,1.3,0.1,2
	c0,0.1,0,0.1-0.1,0.2c-0.1-0.3-0.2-0.6-0.4-0.9c-0.4-0.9-1-1.5-2-1.8c-1.2-0.3-2.2,0-3.1,0.8c-0.9,0.8-1.3,1.9-1.4,3.1
	c-0.1,0.7-0.1,1.4,0.2,2c0.3,0.9,0.9,1.4,1.8,1.5c0.4,0,0.9,0,1.3-0.1c0.7-0.1,1.2-0.6,1.4-1.3c0.2-0.6,0.2-1.2,0-1.8
	c-0.3-0.8-0.8-1.2-1.7-1.3c-0.2,0-0.5,0-0.8-0.1c0.1-0.2,0.2-0.5,0.4-0.6c0.4-0.5,1.1-0.6,1.6-0.2c0.2,0.2,0.4,0.3,0.5,0.5
	c0.2,0.4,0.4,0.7,0.5,1.1c0.2,0.7,0.3,1.3,0.5,2c0.1,0.5,0.2,1,0.3,1.6c0.9,0,1.7,0,2.5,0c-0.1-1.2,0.1-2.3,0.3-3.4
	C79.6,138.2,79.7,137.3,79.8,136.3z M73.1,139.6c0.5,0,0.9,0.4,0.9,0.9c0,0.5-0.4,0.8-0.9,0.8c-0.5,0-0.9-0.4-0.9-0.9
	C72.3,139.9,72.6,139.6,73.1,139.6z M59.9,129.8C59.9,129.8,59.8,129.8,59.9,129.8C59.8,129.8,59.8,129.8,59.9,129.8l-2-0.1
	c0,2.8-0.1,5.7,0,8.5c-0.8-2-1.5-3.9-2.3-5.9c-0.8,2-1.4,3.9-2.2,5.9c0-0.1,0-0.1,0-0.2c0-1.2,0.1-2.4,0-3.6c0-1.2-0.7-2-1.7-2.2
	c-0.5-0.1-0.9-0.1-1.4,0c-0.7,0.2-1.2,0.5-1.5,1.2c-0.2,0.4-0.2,0.9-0.2,1.3c0,0.9,0.5,1.6,1.4,1.9c0.3,0.1,0.7,0.1,1,0.1
	c0.1,0,0.2,0,0.4,0v5.7H54c0.5-1.5,1-3.1,1.6-4.6h0.1c0.5,1.5,1.1,3.1,1.6,4.6c0.7,0.1,2.3,0.1,2.6,0c0,0,0-0.1,0-0.2
	c0-4.1,0-8.2,0-12.2C59.9,130,59.9,129.9,59.9,129.8z M50.9,135.5c-0.5,0-0.9-0.4-0.9-0.9c0-0.5,0.4-0.8,0.9-0.8
	c0.5,0,0.9,0.4,0.9,0.9C51.7,135.1,51.4,135.5,50.9,135.5z M47.4,129.8h-2c0,2.8-0.1,5.7,0,8.5c-0.7-2-1.5-4-2.2-5.9
	c-0.1,0-0.1,0-0.1,0.1c-0.6,1.8-1.3,3.7-1.9,5.5c0,0,0,0.1-0.1,0.1c0,0,0,0,0,0.1c0,0,0,0,0,0c0,0,0,0,0,0v-0.6c0-1,0-2,0-3
	c0-1.1-0.7-1.8-1.7-2.1c-0.2,0-0.4-0.1-0.6-0.1c-0.8,0-1.4,0.1-2,0.7c-0.5,0.5-0.6,1.2-0.6,1.9c0.1,0.9,0.6,1.6,1.5,1.9
	c0.3,0.1,0.6,0.1,1,0.1c0.1,0,0.2,0,0.4,0v5.7h2.7c0.5-1.6,1-3.1,1.5-4.6h0.1c0.5,1.5,1.1,3.1,1.6,4.6h2.6
	C47.5,142,47.5,130.1,47.4,129.8z M38.4,135.5c-0.5,0-0.9-0.4-0.9-0.9c0-0.5,0.4-0.9,0.8-0.9c0.5,0,0.9,0.4,0.9,0.9
	C39.3,135.1,38.9,135.5,38.4,135.5z"/>
<path d="M157.3,134.8c-0.1-0.8-0.5-1.4-1.1-1.9c-0.4-0.3-0.9-0.5-1.4-0.5c-1.2-0.2-2.4-0.2-3.6,0.1c-0.4,0.1-0.8,0.2-1.2,0.4
	c-0.9,0.4-1.4,1.1-1.6,2c-0.2,0.9-0.2,1.7,0,2.6c0.3,1.7,0.9,3.3,0.8,5c0.5,0.1,2.2,0.1,2.6,0c0.2-1.3,0.3-2.6,0.7-3.8
	c0.3,0,0.6,0,0.8,0c0.8,0,1.4-0.5,1.6-1.3c0.2-0.8-0.1-1.6-0.6-2c-0.9-0.6-2.3-0.3-2.8,0.6c-0.2,0.3-0.3,0.7-0.4,1.1
	c-0.1,0.5-0.2,0.9-0.3,1.5c-0.1-0.1-0.1-0.2-0.1-0.3c-0.1-0.7-0.2-1.4-0.3-2.1c-0.1-1.1,0.5-1.9,1.5-2.2c0.7-0.2,1.4-0.2,2.1,0
	c0.7,0.2,1.2,0.7,1.3,1.4c0,0.2,0.1,0.5,0.1,0.7v6c0,0.2,0,0.3,0,0.5h2.1v-7.4C157.3,135.1,157.3,134.9,157.3,134.8z M153,136.1
	c0.5,0,0.8,0.3,0.8,0.8c0,0.4-0.3,0.8-0.8,0.8c-0.5,0-0.8-0.3-0.8-0.8C152.2,136.4,152.5,136.1,153,136.1z"/>
<path d="M2.6,134.2c0.6-0.1,1.1-0.4,1.6-0.7c0.8-0.5,1.5-0.9,2.4-1.1c1.1-0.2,2.1-0.2,3.2,0.1c1.1,0.3,1.9,1,2.1,2.2
	c0.1,0.2,0.1,0.4,0.1,0.6c0,2.3,0,4.6,0,6.9c0,0.1,0,0.2,0,0.4c-0.7,0-1.3,0-2.1,0c0-0.2,0-0.3,0-0.5c0-2.1,0-4.1,0-6.2
	c0-0.1,0-0.3,0-0.4c0-0.7-0.4-1.1-1-1.4c-0.5-0.2-1-0.2-1.5-0.2c-0.8,0.1-1.5,0.4-2.3,0.9c0.2,0.1,0.4,0.1,0.6,0.2c0,2.5,0,5,0,7.6
	c-0.7,0-1.3,0-2,0c0-2.1,0-4.2,0-6.3c-0.4-0.2-0.7-0.2-1.1-0.1C2.6,135.5,2.6,134.8,2.6,134.2z"/>
<path d="M139,153.4c-0.2-1.1-0.7-1.9-1.8-2.3c-0.5-0.2-1-0.2-1.5-0.1c-1.1,0.2-1.8,0.8-2.1,1.9c-0.2,0.5-0.2,1.1-0.1,1.6
	c0.2,1.2,0.8,2.1,2,2.4c0.1,0,0.1,0.1,0.2,0.1h1.2c0.1,0,0.2-0.1,0.3-0.1c0.9-0.3,1.5-0.9,1.8-1.8C139.1,154.5,139.1,154,139,153.4z
	 M137.7,155c-0.2,0.6-0.8,1-1.4,1c-0.7,0-1.2-0.3-1.5-0.9c-0.3-0.7-0.3-1.5,0-2.2c0.3-0.6,0.8-0.9,1.4-0.9c0.7,0,1.2,0.3,1.4,0.9
	c0.1,0.3,0.2,0.7,0.2,1.1C137.8,154.4,137.8,154.7,137.7,155z"/>
<path d="M19.9,153.1c-0.2-1.2-1-1.9-2.2-2.1c-0.3,0-0.7,0-1,0c-1.1,0.1-1.9,0.8-2.2,1.9c-0.2,0.7-0.2,1.3,0,2c0.2,1,0.8,1.6,1.8,1.9
	c0.1,0,0.2,0.1,0.3,0.1h1.2c0.1,0,0.1-0.1,0.2-0.1c1.1-0.3,1.7-1,1.9-2.1C20.1,154.3,20.1,153.7,19.9,153.1z M18.7,155.1
	c-0.2,0.6-0.7,0.9-1.3,1c-0.7,0-1.2-0.2-1.5-0.9c-0.4-0.8-0.4-1.6,0-2.3c0.3-0.6,0.8-0.9,1.5-0.9c0.6,0,1.1,0.3,1.3,0.9
	c0.1,0.4,0.2,0.7,0.2,1.1C18.8,154.4,18.8,154.7,18.7,155.1z"/>
<path d="M119.1,157c-0.1,0-0.2-0.1-0.3-0.1c-0.8-0.2-1.2-0.8-1.3-1.6c-0.1-1.1-0.1-2.2-0.1-3.3c0-0.3,0-0.6,0-0.9c0.4,0,0.7,0,1.1,0
	c0,0.2,0,0.3,0,0.5c0,1,0,2.1,0,3.1c0,0.2,0,0.4,0.1,0.6s0.2,0.4,0.3,0.5c0.3,0.3,1.1,0.3,1.4,0.1c0.2-0.1,0.4-0.3,0.4-0.6
	c0-0.3,0.1-0.6,0.1-0.9c0-0.9,0-1.8,0-2.7c0-0.2,0-0.3,0-0.5c0.4,0,0.7,0,1.1,0c0,0.1,0,0.2,0,0.3c0,1.2,0,2.4,0,3.6
	c0,0.2,0,0.4-0.1,0.6c-0.1,0.7-0.5,1.1-1.2,1.4c-0.1,0-0.2,0.1-0.3,0.1C120,157,119.6,157,119.1,157z"/>
<path d="M73.5,157c-0.1,0-0.1-0.1-0.2-0.1c-1.1-0.3-1.7-1.1-1.9-2.2c-0.1-0.6-0.1-1.2,0.1-1.8c0.4-1.6,2.4-2.4,3.9-1.6
	c0.5,0.3,0.8,0.7,1,1.3c-0.3,0.1-0.7,0.2-1,0.3c-0.1-0.1-0.1-0.2-0.2-0.3c-0.2-0.4-0.6-0.7-1.1-0.7c-0.5,0-1,0.2-1.2,0.7
	c-0.4,0.9-0.4,1.8,0,2.7c0.2,0.5,0.7,0.7,1.2,0.7c0.5,0,0.9-0.3,1.1-0.7c0.1-0.1,0.1-0.3,0.2-0.5c0.3,0.1,0.7,0.2,1.1,0.3
	c-0.2,0.8-0.6,1.4-1.4,1.7c-0.2,0.1-0.3,0.1-0.5,0.2C74.2,157,73.8,157,73.5,157z"/>
<path d="M91.8,157c-0.1,0-0.1-0.1-0.2-0.1c-1.1-0.3-1.7-1.1-1.9-2.2c-0.1-0.6-0.1-1.2,0.1-1.7c0.4-1.7,2.4-2.5,3.9-1.6
	c0.5,0.3,0.8,0.7,0.9,1.3c-0.4,0.1-0.7,0.2-1.1,0.3c-0.1-0.1-0.1-0.2-0.1-0.2c-0.3-0.5-0.7-0.8-1.3-0.7c-0.6,0-1,0.3-1.2,0.8
	c-0.3,0.8-0.3,1.6,0,2.4c0.2,0.5,0.6,0.8,1.2,0.8c0.6,0,1-0.3,1.2-0.8c0.1-0.1,0.1-0.3,0.2-0.4c0.3,0.1,0.7,0.2,1.1,0.3
	c-0.2,0.8-0.6,1.4-1.4,1.7c-0.1,0.1-0.3,0.1-0.4,0.2C92.5,157,92.1,157,91.8,157z"/>
<path d="M35.8,157c-0.1,0-0.1-0.1-0.2-0.1c-1.1-0.3-1.7-1-1.9-2.1c-0.1-0.6-0.1-1.3,0.1-1.9c0.5-1.6,2.3-2.4,3.8-1.6
	c0.5,0.3,0.8,0.6,1,1.3c-0.2,0.1-0.3,0.1-0.5,0.1c-0.2,0.1-0.4,0.1-0.6,0.1c0-0.1-0.1-0.1-0.1-0.2c-0.2-0.5-0.7-0.8-1.2-0.8
	c-0.6,0-1,0.3-1.2,0.8c-0.3,0.8-0.3,1.6,0,2.4c0.2,0.5,0.6,0.8,1.2,0.8c0.6,0,1-0.3,1.2-0.8c0.1-0.1,0.1-0.2,0.2-0.4
	c0.3,0.1,0.7,0.2,1,0.3c0,0.8-0.7,1.5-1.4,1.8c-0.1,0.1-0.3,0.1-0.4,0.1C36.4,157,36.1,157,35.8,157z"/>
<path d="M47.4,129.8h-2c0,2.8-0.1,5.7,0,8.5c-0.7-2-1.5-4-2.2-5.9c-0.1,0-0.1,0-0.1,0.1c-0.6,1.8-1.3,3.7-1.9,5.5c0,0,0,0.1-0.1,0.1
	c0,0,0,0,0,0.1c0,0,0,0,0,0c0,0,0,0,0,0v-0.6c0-1,0-2,0-3c0-1.1-0.7-1.8-1.7-2.1c-0.2,0-0.4-0.1-0.6-0.1c-0.8,0-1.4,0.1-2,0.7
	c-0.5,0.5-0.6,1.2-0.6,1.9c0.1,0.9,0.6,1.6,1.5,1.9c0.3,0.1,0.6,0.1,1,0.1c0.1,0,0.2,0,0.4,0v5.7h2.7c0.5-1.6,1-3.1,1.5-4.6h0.1
	c0.5,1.5,1.1,3.1,1.6,4.6h2.6C47.5,142,47.5,130.1,47.4,129.8z M38.4,135.5c-0.5,0-0.9-0.4-0.9-0.9c0-0.5,0.4-0.9,0.8-0.9
	c0.5,0,0.9,0.4,0.9,0.9C39.3,135.1,38.9,135.5,38.4,135.5z"/>
<path d="M59.9,129.8C59.9,129.8,59.8,129.8,59.9,129.8C59.8,129.8,59.8,129.8,59.9,129.8l-2-0.1c0,2.8-0.1,5.7,0,8.5
	c-0.8-2-1.5-3.9-2.3-5.9c-0.8,2-1.4,3.9-2.2,5.9c0-0.1,0-0.1,0-0.2c0-1.2,0.1-2.4,0-3.6c0-1.2-0.7-2-1.7-2.2c-0.5-0.1-0.9-0.1-1.4,0
	c-0.7,0.2-1.2,0.5-1.5,1.2c-0.2,0.4-0.2,0.9-0.2,1.3c0,0.9,0.5,1.6,1.4,1.9c0.3,0.1,0.7,0.1,1,0.1c0.1,0,0.2,0,0.4,0v5.7H54
	c0.5-1.5,1-3.1,1.6-4.6h0.1c0.5,1.5,1.1,3.1,1.6,4.6c0.7,0.1,2.3,0.1,2.6,0c0,0,0-0.1,0-0.2c0-4.1,0-8.2,0-12.2
	C59.9,130,59.9,129.9,59.9,129.8z M50.9,135.5c-0.5,0-0.9-0.4-0.9-0.9c0-0.5,0.4-0.8,0.9-0.8c0.5,0,0.9,0.4,0.9,0.9
	C51.7,135.1,51.4,135.5,50.9,135.5z"/>
<path d="M79.8,136.3c0.1-1.2-0.4-2.2-1.3-3c-0.1-0.1-0.2-0.2-0.3-0.2c0.4-0.6,0.8-1.1,1.2-1.7c-0.8,0-1.4,0-2.1,0
	c-0.5,0-0.9,0.1-1.1,0.6c-0.2,0.4-0.4,0.4-0.8,0.4c-1.2-0.1-2.4,0-3.5,0.5c-1.1,0.4-1.8,1.2-2.2,2.3c-0.1,0.2-0.1,0.3-0.1,0.5h2.1
	c0.3-0.7,0.9-1.2,1.6-1.4c0.9-0.3,1.8-0.3,2.7,0c0.8,0.2,1.3,0.7,1.5,1.5c0.2,0.7,0.2,1.3,0.1,2c0,0.1,0,0.1-0.1,0.2
	c-0.1-0.3-0.2-0.6-0.4-0.9c-0.4-0.9-1-1.5-2-1.8c-1.2-0.3-2.2,0-3.1,0.8c-0.9,0.8-1.3,1.9-1.4,3.1c-0.1,0.7-0.1,1.4,0.2,2
	c0.3,0.9,0.9,1.4,1.8,1.5c0.4,0,0.9,0,1.3-0.1c0.7-0.1,1.2-0.6,1.4-1.3c0.2-0.6,0.2-1.2,0-1.8c-0.3-0.8-0.8-1.2-1.7-1.3
	c-0.2,0-0.5,0-0.8-0.1c0.1-0.2,0.2-0.5,0.4-0.6c0.4-0.5,1.1-0.6,1.6-0.2c0.2,0.2,0.4,0.3,0.5,0.5c0.2,0.4,0.4,0.7,0.5,1.1
	c0.2,0.7,0.3,1.3,0.5,2c0.1,0.5,0.2,1,0.3,1.6c0.9,0,1.7,0,2.5,0c-0.1-1.2,0.1-2.3,0.3-3.4C79.6,138.2,79.7,137.3,79.8,136.3z
	 M73.1,139.6c0.5,0,0.9,0.4,0.9,0.9c0,0.5-0.4,0.8-0.9,0.8c-0.5,0-0.9-0.4-0.9-0.9C72.3,139.9,72.6,139.6,73.1,139.6z"/>
<path d="M124.6,132.4v5.4c0,0.9,0,1.8,0,2.7c-0.2-0.1-0.3-0.2-0.4-0.2c-0.8-0.5-1.5-1-2.2-1.5c-0.2-0.2-0.3-0.3-0.3-0.6
	c0-1.1,0-2.1,0-3.2c0-0.4-0.1-0.8-0.2-1.2c-0.2-0.7-0.7-1.1-1.4-1.3c-0.5-0.2-1-0.2-1.6-0.1c-1.1,0.2-1.8,1.1-1.8,2.2
	c0,1.2,0.6,2,1.7,2.2c0.2,0.1,0.5,0,0.7,0.1c0.1,0,0.2,0,0.4,0c0,0.4,0.1,0.7,0,1.1c-0.2,0-0.3,0-0.4,0c-1.4-0.1-2.3,0.7-2.5,1.8
	c-0.3,1.3,0.4,2.5,1.6,2.9c1.3,0.4,2.8-0.2,3.2-1.4c0-0.1,0.1-0.3,0.2-0.4c0.5,0.3,0.9,0.6,1.3,0.9c0.4,0.3,0.8,0.7,1.3,0.8
	c0.5,0.2,1.1,0.1,1.6,0.1c0.3,0,0.6,0,0.9,0v-10.2H124.6z M118.9,141.1c-0.5,0-0.9-0.4-0.9-0.9c0-0.5,0.3-0.8,0.8-0.9
	c0.5,0,0.9,0.4,0.9,0.9C119.8,140.7,119.4,141.1,118.9,141.1z M119.1,135.5c-0.5,0-0.9-0.4-0.9-0.9c0-0.5,0.4-0.8,0.9-0.8
	c0.5,0,0.9,0.4,0.9,0.9C120,135.1,119.6,135.5,119.1,135.5z"/>
<path d="M100.6,138.2c-0.1,0-0.3,0-0.5,0v-5.7c-0.5-0.1-1.7-0.1-2.1,0v0.5c0,1.7,0,3.3,0,5c0,0.3-0.1,0.5-0.3,0.6
	c-0.9,0.5-1.8,1.1-2.7,1.7c-0.1,0.1-0.2,0.1-0.4,0.2c0-0.2,0-0.4,0-0.5c0-1.6,0-3.2,0-4.8c0-0.3,0-0.5,0-0.8
	c-0.1-0.6-0.3-1.2-0.8-1.6c-0.4-0.3-0.9-0.5-1.4-0.5c-1.5-0.1-2.9,0.7-2.8,2.5c0.1,0.9,0.5,1.6,1.4,1.9c0.3,0.1,0.7,0.1,1,0.1
	c0.1,0,0.2,0,0.4,0v5.7c0.7,0,1.3,0,2,0c0.3,0,0.5-0.1,0.8-0.2c0.8-0.5,1.5-1,2.3-1.5c0.1-0.1,0.2-0.1,0.3-0.2c0,0.1,0,0.2,0.1,0.3
	c0.4,1.5,2.3,2.3,3.6,1.5c0.7-0.4,1-1.1,1.1-1.8C102.9,139.3,102,138.2,100.6,138.2z M92.1,135.5c-0.5,0-0.9-0.4-0.9-0.9
	c0-0.5,0.4-0.9,0.9-0.9c0.5,0,0.9,0.4,0.8,0.9C93,135.1,92.6,135.5,92.1,135.5z M100.5,141.3c-0.5,0-0.8-0.4-0.8-0.8
	c0-0.5,0.4-0.8,0.9-0.8c0.5,0,0.8,0.4,0.8,0.8C101.3,141,101,141.3,100.5,141.3z"/>
<path d="M114.5,135.2c0-0.2,0-0.3-0.1-0.5c-0.3-1.2-1.1-1.8-2.1-2.1c-1.7-0.5-3.3-0.4-4.9,0.5c-0.7,0.4-1.4,0.9-2.2,1.2v1.9
	c0.5,0,1,0.1,1.5,0.1v1.9c-0.3,0-0.5,0-0.7,0c-1.2,0.1-1.9,0.9-2.1,2.1c-0.1,1.1,0.5,2,1.6,2.3c0.4,0.1,0.7,0.1,1.1,0.1
	c1.1-0.1,1.9-0.7,2.1-1.7c0.1-0.3,0.1-0.6,0.1-0.9c0-1.6,0-3.2,0-4.8c0-0.1,0-0.2,0-0.3c-0.4-0.1-0.7-0.1-1.1-0.2c0-0.1,0-0.1,0-0.1
	c1-0.6,2-1,3.2-0.8c1,0.2,1.4,0.7,1.4,1.7c0,2.1,0,4.3,0,6.4v0.5c0.6,0.1,1.7,0.1,2.1,0c0-0.1,0-0.1,0-0.2
	C114.5,139.9,114.5,137.5,114.5,135.2z M106.4,141.2c-0.5,0-0.9-0.3-0.9-0.9c0-0.5,0.4-0.9,0.9-0.9c0.5,0,0.8,0.3,0.9,0.8
	C107.2,140.8,106.8,141.2,106.4,141.2z"/>
<path d="M138.3,135.1c0-0.8-0.4-1.4-1-1.9c-0.5-0.4-1-0.6-1.6-0.8c-1.8-0.4-3.5-0.1-5.1,0.9c-0.4,0.3-0.9,0.5-1.4,0.7
	c-0.1,0-0.2,0.1-0.2,0.1v1.8c0.5,0,1,0.1,1.5,0.1c0.1,0.5,0.1,1.5,0,1.9c-0.2,0-0.4,0-0.6,0c-0.7,0-1.3,0.3-1.7,0.9
	c-0.8,1.1-0.6,3.2,1.4,3.6c0.1,0,0.2,0,0.2,0c1.5,0.2,2.6-0.6,2.8-2.1c0-0.2,0-0.3,0-0.5v-4.7c0-0.1,0-0.3,0-0.4
	c-0.4,0-0.7-0.1-1.1-0.2c0.1-0.1,0.1-0.1,0.2-0.2c0.6-0.4,1.2-0.6,1.9-0.7c0.6-0.1,1.1,0,1.6,0.2c0.6,0.2,0.9,0.7,0.9,1.4v7.1h2.1
	c0-0.1,0-0.2,0-0.2C138.3,139.9,138.3,137.5,138.3,135.1z M130.1,141.2c-0.5,0-0.8-0.4-0.8-0.9c0-0.5,0.4-0.9,0.9-0.9
	c0.5,0,0.8,0.4,0.8,0.9C131,140.8,130.6,141.2,130.1,141.2z"/>
<path d="M29.6,135.8c0-0.2,0-0.3,0-0.5h-1.7c-0.6,0-1.1,0-1.7,0c-0.5,0-1.1,0-1.6,0c0-0.6,0.3-1,0.9-1.1c0.3,0,0.7,0,1,0
	c0.5,0.1,1.1,0.2,1.6,0.3c0.5,0.1,1,0.1,1.5-0.2v-1.9c-0.7,0.2-1.3,0.2-1.9,0.1c-0.9-0.1-1.7-0.2-2.6-0.1c-1.2,0.1-2.2,0.8-2.7,1.9
	c-0.3,0.7-0.5,1.5-0.5,2.3c0,0.3,0,0.5,0,0.8h2.2c0.1,0,0.2,0,0.2-0.1c0.2-0.4,0.6-0.4,0.9-0.4c0.6,0,1.3,0,1.9,0c0.1,0,0.2,0,0.4,0
	v1.2c-0.3,0-0.5,0-0.7,0c-1.1,0.1-2,0.9-2.1,2c-0.1,1.3,0.5,2.2,1.6,2.5c0.6,0.2,1.2,0.2,1.7,0c0.7-0.2,1.1-0.6,1.3-1.3
	c0.1-0.4,0.2-0.8,0.2-1.2C29.7,138.6,29.6,137.2,29.6,135.8z M27.1,141.2c-0.5,0-0.8-0.4-0.8-0.9s0.4-0.9,0.9-0.9
	c0.5,0,0.9,0.4,0.9,0.8C28,140.8,27.6,141.2,27.1,141.2z"/>
<path d="M36.4,139.7c-0.1-0.6-0.4-1-1-1.3c-0.4-0.2-0.8-0.3-1.2-0.3h-0.6v-9.1c0-0.2,0-0.3,0-0.5c-0.1-1-0.8-1.9-1.8-2.1
	c-0.3-0.1-0.5,0-0.8,0.2c-0.3,0.3-0.7,0.6-1,1c-0.6-0.4-1.2-0.8-1.9-1.1c0,0.7,0,1.2,0,1.8c0,0.1,0.1,0.2,0.2,0.3
	c0.4,0.2,0.7,0.4,1.1,0.7c0.2,0.1,0.5,0.3,0.7,0.4c0.3-0.3,0.6-0.6,0.9-0.9c0.2-0.2,0.4-0.1,0.5,0.2c0,0.2,0,0.3,0,0.5v10.5
	c0,0.2,0,0.4,0,0.6c0.1,1.3,0.8,2.1,2.1,2.2C35.5,142.8,36.7,141.5,36.4,139.7z M34.1,141.2c-0.5,0-0.9-0.4-0.9-0.9
	c0-0.5,0.4-0.9,0.9-0.8c0.5,0,0.9,0.4,0.9,0.9C34.9,140.8,34.5,141.2,34.1,141.2z"/>
<path d="M88.8,135c-0.1-1.2-0.8-2.2-2-2.5c-1.3-0.4-2.7-0.4-4,0.1c-1.3,0.4-2,1.4-2.2,2.7c0,0.3-0.1,0.6,0,1h1.9
	c0-0.2,0-0.4,0.1-0.5c0.1-0.7,0.4-1.3,1.2-1.6c0.6-0.2,1.3-0.2,1.9,0c0.6,0.2,1,0.6,1.1,1.2c0,0.9,0,1.8,0,2.7
	c-0.4,0-0.8,0.1-1.1,0.1c-1,0.2-1.6,1-1.7,1.9c-0.1,1.1,0.4,2,1.3,2.4c0.7,0.3,1.5,0.3,2.2,0c0.5-0.2,0.9-0.6,1.1-1.2
	c0.2-0.4,0.2-0.9,0.2-1.3v-3.6C88.8,135.9,88.8,135.5,88.8,135z M86.3,141.2c-0.5,0-0.8-0.4-0.8-0.9c0-0.5,0.4-0.9,0.9-0.9
	c0.5,0,0.8,0.4,0.8,0.8C87.2,140.8,86.8,141.2,86.3,141.2z"/>
<path d="M139.5,136.4c-0.2-2.5,1.1-3.7,3-4c0.8-0.1,1.6-0.1,2.4,0.1c1.2,0.3,1.9,1.1,2.1,2.3c0.1,0.4,0.1,0.7,0.1,1.1
	c0,2.1,0,4.2,0,6.2c0,0.2,0,0.3,0,0.5c-0.7,0-1.4,0-2.1,0c0-0.2,0-0.4,0-0.6c0-2.1,0-4.2,0-6.3c0-1.1-0.5-1.6-1.6-1.7
	c-0.1,0-0.2,0-0.4,0c-0.8,0.1-1.3,0.5-1.4,1.3c-0.1,0.3-0.1,0.6-0.1,1C141.1,136.4,140.1,136.4,139.5,136.4z"/>
<path d="M15.3,136.4c-0.7,0-1.3,0-1.9,0c-0.3-1.6,0.5-3.1,1.8-3.7c0.8-0.3,1.6-0.4,2.4-0.4c0.4,0,0.7,0.1,1,0.1
	c1.4,0.3,2.2,1.2,2.3,2.6c0,0.2,0,0.4,0,0.6c0,2.2,0,4.4,0,6.6c0,0.1,0,0.2,0,0.4c-0.7,0-1.3,0-2.1,0c0-0.2,0-0.4,0-0.6
	c0-2.1,0-4.2,0-6.3c0-1.3-0.7-1.7-1.7-1.7c0,0-0.1,0-0.1,0c-1,0-1.6,0.6-1.7,1.6C15.4,135.9,15.3,136.1,15.3,136.4z"/>
<path d="M68.5,142.6c-0.7,0-1.4,0-2.1,0c0-0.2,0-0.4,0-0.6c0-2,0-4,0-6.1c0-0.2,0-0.3,0-0.5c-0.1-0.8-0.4-1.2-1.2-1.4
	c-0.1,0-0.1,0-0.2,0c-1.3-0.1-2,0.5-2.1,1.9c0,0.1,0,0.3,0,0.4c-0.7,0-1.3,0-1.9,0c-0.2-1.8,0.6-3.3,2.1-3.8
	c1.1-0.4,2.2-0.4,3.4-0.1c1.2,0.3,1.8,1.1,2,2.4c0,0.3,0.1,0.6,0.1,0.9c0,2.1,0,4.2,0,6.3C68.5,142.2,68.5,142.3,68.5,142.6z"/>
<path d="M114.5,143.5h-1.8v3.5c-0.5,0.1-1.7,0.1-2.1,0c0-0.4,0-0.8,0-1.1c0-0.4,0-0.8-0.1-1.2c-0.2-0.8-0.7-1.2-1.5-1.2
	c-0.2,0-0.5,0-0.7,0.1c-0.7,0.2-1.2,0.8-1.2,1.6c0,0.8,0.4,1.3,1.2,1.5c0.1,0,0.3,0,0.5,0.1v1.5c1,0,2,0,2.9,0c1,0,1.9,0,2.9,0
	C114.6,147.4,114.6,143.9,114.5,143.5z M108.8,145.8c-0.4,0-0.7-0.2-0.7-0.6c0-0.4,0.3-0.6,0.6-0.7c0.4,0,0.7,0.3,0.6,0.6
	C109.5,145.5,109.2,145.7,108.8,145.8z"/>
<path d="M124,127.9c-0.7-0.4-1.5-0.5-2.3-0.4c-0.6,0.1-1.2,0.3-1.7,0.6c-0.6,0.3-1.2,0.7-1.9,1c-0.1,0-0.2,0.1-0.2,0.2v1.6h8.8v-1.5
	C125.7,128.9,124.8,128.4,124,127.9z M120.4,129.6c0.5-0.5,1.1-0.8,1.7-0.8c0.7,0,1.3,0.3,1.8,0.7
	C123.7,129.7,121.1,129.7,120.4,129.6z"/>
<path d="M155.1,156.9c-0.4,0-0.7,0-1.1,0c0-0.1,0-0.2,0-0.3c0-0.6,0-1.2,0-1.8c0-0.2,0-0.4-0.1-0.5c-0.6-1-1.2-1.9-1.8-2.9
	c0-0.1-0.1-0.1-0.2-0.2c0,0.3,0,0.6,0,0.8c-0.5,0.1-1.1,0-1.7,0.1c0,1.6,0,3.1,0,4.7c-0.4,0-0.7,0-1.1,0c0-1.6,0-3.1,0-4.8
	c-0.6,0-1.1,0-1.7,0c0-0.3,0-0.6,0-0.9c0.2,0,0.3,0,0.4,0c1.7,0,3.4,0,5.1,0c0.3,0,0.5,0.1,0.6,0.4c0.4,0.6,0.7,1.2,1.1,1.9
	c0.3-0.4,0.5-0.8,0.7-1.1c0.2-0.4,0.4-0.7,0.7-1.1c0.4,0,0.8,0,1.3,0c-0.1,0.1-0.1,0.3-0.2,0.4c-0.5,0.8-1,1.7-1.6,2.5
	c-0.2,0.3-0.3,0.6-0.3,0.9c0,0.5,0,0.9,0,1.4C155.1,156.6,155.1,156.7,155.1,156.9z"/>
<path d="M107.2,151.1c-0.1,0.2-0.2,0.3-0.3,0.5c-0.5,0.9-1.1,1.7-1.6,2.5c-0.2,0.3-0.2,0.5-0.2,0.8c0,0.6,0,1.3,0,1.9
	c-0.2,0-0.4,0-0.5,0c-0.2,0-0.3,0-0.6,0c0-0.2,0-0.3,0-0.4c0-0.6,0-1.1,0-1.7c0-0.2,0-0.4-0.1-0.5c-0.6-1-1.2-2-1.8-2.9
	c0,0-0.1-0.1-0.2-0.1c0,0.3-0.1,0.5-0.1,0.8c-0.5,0-1.1,0-1.7,0c0,0.6,0,1.1,0,1.6c0,0.5,0,1.1,0,1.6c0,0.5,0,1,0,1.6
	c-0.4,0-0.7,0-1.1,0c0-0.2,0-0.4,0-0.5c0-1.2,0-2.4,0-3.6c0-0.2,0-0.4,0-0.6c-0.6,0-1.1,0-1.7,0c0-0.3,0-0.6,0-0.9c2,0,3.9,0,5.9,0
	c0.4,0.7,0.9,1.5,1.3,2.2c0.1-0.2,0.2-0.3,0.3-0.4c0.3-0.5,0.6-1.1,0.9-1.6c0.1-0.2,0.3-0.3,0.5-0.3
	C106.6,151.1,106.9,151.1,107.2,151.1z"/>
<path d="M143.1,154.4c0.2-0.1,0.3-0.1,0.5-0.2c0.7-0.3,1-0.9,1-1.7c-0.1-0.7-0.5-1.2-1.3-1.3c-1.1-0.1-2.2,0-3.3-0.1
	c0,0-0.1,0-0.1,0.1v5.7h1.1v-2.3c0.7-0.2,1.1,0,1.5,0.6c0.3,0.5,0.7,1,1,1.5c0.1,0.1,0.2,0.3,0.3,0.3c0.4,0,0.7,0,1.2,0
	C144.4,156,144,155,143.1,154.4z M141,153.5v-1.5c0.6,0,1.2,0,1.8,0c0.4,0.1,0.5,0.3,0.5,0.7c0,0.4-0.2,0.6-0.5,0.7
	C142.5,153.6,141.5,153.6,141,153.5z"/>
<path d="M12.3,154.4C12.3,154.4,12.3,154.3,12.3,154.4c0.1-0.1,0.3-0.2,0.4-0.2c0.7-0.3,1.1-0.9,1-1.7c-0.1-0.8-0.5-1.3-1.3-1.3
	c-1.1-0.1-2.2,0-3.3-0.1c0,0,0,0-0.1,0.1v5.7h1.1v-2.3c0.7-0.2,1.1,0.1,1.5,0.6c0.2,0.3,0.4,0.6,0.6,0.9c0.2,0.3,0.4,0.7,0.7,0.9
	c0.3,0.1,0.7,0,1.1,0c0,0,0,0,0.2,0C13.5,156,13.1,155,12.3,154.4z M11.9,153.5c-0.6,0-1.1,0.1-1.8,0.1v-1.5c0.2,0,0.3,0,0.4,0
	c0.4,0,0.9,0,1.3,0c0.4,0,0.6,0.3,0.6,0.7C12.5,153.2,12.3,153.5,11.9,153.5z"/>
<path d="M31.7,154.8c0-1.2,0-2.4,0-3.7c0.4,0,0.7,0,1,0c0.1,0.3,0.1,4.9,0,5.7c-0.3,0.1-0.7,0.1-1,0c-0.1,0-0.2-0.2-0.3-0.3
	c-0.6-0.9-1.2-1.9-1.8-2.9c-0.1-0.2-0.2-0.3-0.4-0.5c0,0.1,0,0.2,0,0.4c0,0.9,0,1.8,0,2.7c0,0.2,0,0.3,0,0.5c-0.3,0-0.6,0-1,0
	c-0.1-0.3-0.1-5.1,0-5.8c0.3,0,0.6,0,0.9,0c0.2,0,0.3,0.2,0.4,0.3c0.6,1,1.2,2,1.8,3c0.1,0.1,0.2,0.3,0.3,0.4
	C31.6,154.9,31.7,154.8,31.7,154.8z"/>
<path d="M85.3,154.4c0.2-0.1,0.4-0.2,0.6-0.2c0.6-0.3,0.9-0.9,0.8-1.6c-0.1-0.7-0.5-1.2-1.2-1.3c-0.3,0-0.5-0.1-0.8-0.1
	c-0.8,0-1.5,0-2.3,0c-0.1,0-0.2,0-0.3,0c-0.1,0.6-0.1,5.4,0,5.7h1v-2.3c0.6-0.1,1.1,0,1.4,0.5c0.4,0.5,0.7,1.1,1.1,1.6
	c0.1,0.1,0.2,0.2,0.3,0.3c0.4,0,0.7,0,1.2,0C86.6,156,86.2,155,85.3,154.4z M83.2,153.6v-1.5c0.6,0,1.2,0,1.8,0
	c0.3,0,0.6,0.3,0.6,0.7c0,0.4-0.2,0.7-0.5,0.7C84.5,153.6,83.9,153.6,83.2,153.6z"/>
<path d="M60.5,152.1c-1,0-2,0-3.1,0c-0.1,0.4,0,0.9,0,1.3c0.5,0,1,0,1.4,0c0.5,0,0.9,0,1.4,0c0,0.3,0,0.6,0,0.9c-0.9,0-1.9,0-2.8,0
	c0,0.6,0,1.1,0,1.6c1.1,0,2.1,0,3.2,0c0,0.3,0,0.6,0,0.9c-1.4,0-2.9,0-4.3,0c-0.1-0.4-0.1-5.2,0-5.7c0.3-0.1,3.7-0.1,4.2,0
	C60.5,151.4,60.5,151.7,60.5,152.1z"/>
<path d="M70.5,151.1c0,0.3,0,0.6,0,0.9c-0.3,0.1-0.7,0.1-1,0.1c-0.3,0-0.7,0-1,0s-0.7,0-1.1,0c-0.1,0.4,0,0.8,0,1.3c0.5,0,1,0,1.4,0
	c0.5,0,0.9,0,1.4,0c0,0.3,0,0.6,0,0.9c-0.9,0-1.9,0-2.8,0c-0.1,0.4-0.1,1,0,1.6c1,0,2.1,0,3.1,0c0,0.3,0,0.6,0,0.9
	c-1.4,0-2.9,0-4.3,0c0-1.9,0-3.8,0-5.7C67.7,151.1,69.1,151.1,70.5,151.1z"/>
<path d="M128,151.1c0.3,0,0.7,0,1,0c0.1,0.4,0.1,0.7,0.1,1.1s0,0.7,0,1.2c0.4,0,0.8,0,1.1,0c0.4,0,0.7,0,1.1,0
	c0.1-0.8,0-1.5,0.1-2.3c0.4,0,0.7,0,1.1,0c0,1.9,0,3.8,0,5.7c-0.2,0-0.3,0-0.5,0c-0.2,0-0.3,0-0.6,0c-0.1-0.8,0-1.7-0.1-2.6
	c-0.8,0-1.5,0-2.3,0c-0.1,0.9,0,1.7-0.1,2.5c-0.4,0-0.7,0-1,0C128,156.5,127.9,151.7,128,151.1z"/>
<path d="M44.6,151.1h-1.2c-0.7,1.9-1.5,3.8-2.2,5.7h1.2c0.2-0.4,0.3-0.9,0.5-1.3h2.4c0.2,0.4,0.3,0.9,0.5,1.3h1.2
	C46.1,154.9,45.3,153,44.6,151.1z M43.2,154.6c0-0.3,0.4-1.5,0.7-2.1c0.3,0.7,0.5,1.3,0.8,2.1H43.2z"/>
<path d="M114.7,151.1h-1.2c-0.4,0.6-2.2,5.4-2.2,5.7h1.1c0.2-0.4,0.3-0.8,0.5-1.3h2c0.4,0,0.4,0,0.5,0.4c0.1,0.3,0.2,0.6,0.3,0.9
	h1.2C116.2,154.9,115.4,153,114.7,151.1z M113.2,154.6c0.2-0.7,0.5-1.4,0.7-2.1h0.1c0.2,0.7,0.5,1.3,0.8,2
	C114.3,154.7,113.8,154.6,113.2,154.6z"/>
<path d="M57.9,127.1c-0.4,0.3-0.8,0.5-1.2,0.8c-0.4,0.2-0.8,0.4-1.3,0.6c0.1-0.2,0.1-0.3,0.2-0.4c0.2-0.4,0.2-0.8,0.2-1.3
	c-0.1-0.8-0.6-1.3-1.5-1.3c-0.1,0-0.2,0-0.4,0c-0.7,0.1-1.3,0.6-1.3,1.3c-0.1,0.8,0.3,1.4,1,1.7c0.1,0,0.2,0.1,0.3,0.1
	c-0.3,0.4-0.7,0.5-1.1,0.8c0.2,0.3,0.4,0.7,0.6,1.1c1.8-0.5,3.5-1.2,5.1-2.3C58.3,127.7,58.1,127.4,57.9,127.1z M54.2,127.6
	c-0.4,0-0.6-0.2-0.7-0.6c0-0.4,0.3-0.7,0.6-0.7c0.4,0,0.7,0.3,0.7,0.6C54.9,127.3,54.6,127.6,54.2,127.6z"/>
<path d="M7.3,151.4c-0.1-0.1-0.3-0.1-0.5-0.2c-0.2,0-0.4-0.1-0.6-0.1c-0.7,0-1.5,0-2.2,0c-0.1,0-0.2,0-0.3,0c-0.1,0.4-0.1,5.4,0,5.7
	h1.1v-2.2c0.3,0,0.5,0,0.8,0c0.4,0,0.9,0,1.3-0.1c0.7-0.1,1.1-0.7,1.2-1.3C8.2,152.5,8,151.8,7.3,151.4z M6.3,153.7
	c-0.5,0.1-1,0.1-1.5,0v-1.6c0.5,0,1-0.1,1.5,0.1c0.4,0.1,0.5,0.4,0.5,0.8C6.9,153.3,6.7,153.6,6.3,153.7z"/>
<path d="M23,155.3c0.5-1.4,0.9-2.8,1.4-4.1c0.4,0,0.8,0,1.2,0c-0.7,1.9-1.4,3.8-2,5.7c-0.4,0-0.8,0-1.2,0c-0.7-1.9-1.4-3.8-2-5.7
	c0.1,0,0.2,0,0.3,0c0.3,0,0.6,0,0.9,0c0.5,1.4,1,2.8,1.4,4.2C22.9,155.3,23,155.3,23,155.3z"/>
<path d="M127.3,151.2c0,0.3,0,0.6,0,0.9c-0.6,0-1.1,0-1.7,0c0,0.6,0,1.1,0,1.6c0,0.5,0,1.1,0,1.6c0,0.5,0,1,0,1.6
	c-0.4,0-0.7,0-1.1,0c0-1.6,0-3.2,0-4.8c-0.6,0-1.1,0-1.7,0c0-0.3,0-0.6,0-0.9C123.1,151.1,126.7,151.1,127.3,151.2z"/>
<path d="M79.7,156.9c-0.4,0-0.8,0-1.1,0c0-1.6,0-3.1,0-4.8c-0.6-0.1-1.1,0-1.7-0.1c0-0.3,0-0.6,0-0.9c1.5,0,3,0,4.5,0
	c0,0.3,0,0.6,0,0.9c-0.5,0.1-1.1,0-1.7,0.1C79.7,153.7,79.7,155.3,79.7,156.9z"/>
<path d="M51.4,156.9c-1.3,0-2.6,0-3.9,0c-0.1-0.3-0.2-4.7,0-5.6c0.3-0.1,0.7-0.1,1.1,0c0,1.6,0,3.1,0,4.7c1,0,1.9,0,2.9,0
	C51.4,156.3,51.4,156.6,51.4,156.9z"/>
<path d="M62.7,155.9c1,0,1.9,0,2.9,0c0,0.3,0,0.6,0,0.9c-1.3,0-2.6,0-3.9,0c-0.1-0.3-0.1-5,0-5.6c0.3,0,0.7,0,1,0
	C62.7,152.8,62.6,154.3,62.7,155.9z"/>
<path d="M78.7,127c0,1.1,0,2.2,0,3.4c-0.7,0-1.3,0-2,0c-0.1-1.1,0-2.2,0-3.3C77,126.9,78.2,126.9,78.7,127z"/>
<path d="M95.6,151.1c0.4,0,0.7,0,1,0c0.1,0.3,0.1,5.1,0,5.7c-0.3,0-0.7,0-1.1,0C95.6,155,95.6,153.1,95.6,151.1z"/>
<path d="M27.2,156.9c-0.4,0-0.7,0-1.1,0c-0.1-0.3-0.1-5.1,0-5.7c0.3,0,0.7,0,1,0c0.1,0.9,0,1.9,0,2.8S27.2,155.9,27.2,156.9z"/>
<path d="M40.6,156.9c-0.3,0-0.7,0-1,0c-0.1-0.3-0.1-5.1,0-5.7c0.3,0,0.7,0,1,0C40.7,151.6,40.7,156.5,40.6,156.9z"/>
<path d="M145.6,156.9c0-1.9,0-3.8,0-5.7c0.2,0,0.3,0,0.5,0c0.2,0,0.3,0,0.5,0c0.1,0.3,0.1,5.1,0.1,5.8
	C146.3,156.9,145.9,156.9,145.6,156.9z"/>
<path d="M88.8,151.1c0,1.9,0,3.8,0,5.7c-0.4,0-0.7,0-1,0c-0.1-0.3-0.1-5.1,0-5.7C88.1,151.1,88.4,151.1,88.8,151.1z"/>
<g>
	<path d="M68.6,69.9l-9-12.6l0,3.1l-8-7.1l11.4,17L63,65L68.6,69.9z M55.1,57.2l5.1,4.6l0-2.5l4.6,6.4l-2.5-2.2l0.1,4.5L55.1,57.2z"
		/>
	<path d="M88.9,65.9c0,0.3-0.3,0.6-0.6,0.8c-0.1,0.1-0.2,0.1-0.3,0.1c-0.2,0-0.4-0.1-0.6-0.4c0,0,0,0,0,0c-0.1-0.1-0.2-0.2-0.4-0.5
		c0-0.1-0.1-0.2-0.1-0.3c0-0.1,0-0.2,0-0.3c-0.1,0.1-0.3,0.1-0.5,0.1c-0.2,0-0.3,0-0.5-0.1c-0.2-0.2-0.2-0.5-0.3-0.9
		c0-0.1,0-0.1,0-0.2c-0.1-0.2,0-0.5,0.3-0.7c0.1,0,0.1-0.1,0.2-0.1c0.2-0.1,0.4,0,0.6,0.1c0.1,0.1,0.2,0.2,0.3,0.4c0,0,0,0,0,0
		c0,0,0,0,0,0c0.2,0.1,0.3,0.2,0.4,0.3c0,0.1,0.1,0.1,0.1,0.2c0.3,0,0.8,0,1.1,0.4c0,0,0,0.1,0.1,0.1C89,65.7,89,65.8,88.9,65.9z"/>
	<path d="M77.6,73C77.6,73,77.6,73.1,77.6,73c0,0.1,0.1,0.1,0.2,0.2C77.7,73.1,77.6,73.1,77.6,73z M77.6,73
		C77.6,73,77.6,73.1,77.6,73c0,0.1,0.1,0.1,0.2,0.2C77.7,73.1,77.6,73.1,77.6,73z M98.2,48.4c-0.8,0.1-1.5-0.1-2-0.6
		c-0.9-0.8-1.3-2.5-1.2-4.9c-1.1-0.6-2.4-1.3-2.7-3c-0.6,0-1.1-0.2-1.5-0.4c-0.2-0.1-0.4-0.2-0.6-0.2c-0.7,1.4-1.1,2.2-1.6,2.5
		c-0.4,0.3-0.8,0-1-0.2c0,0-0.1-0.1-0.1-0.1c-0.4,0-0.7-0.2-1.1-0.4c-0.3-0.2-0.6-0.3-1.1-0.5c-0.2,0.2-0.4,0.4-0.6,0.5
		c-0.4,0.4-0.9,0.8-1.2,1.2c-0.1,0.1-0.1,0.2-0.2,0.2c-0.1,0.2-0.3,0.5-0.8,0.7c-0.3,0.1-0.7-0.1-0.8-0.2c-0.1,0-0.1-0.1-0.2-0.1
		c-0.2,0-0.3-0.1-0.4-0.2c-0.1-0.1-0.1-0.3-0.1-0.4c0-0.2,0.1-0.4,0.2-0.6c0.1-0.4,0.2-0.9,0.3-1.3c-0.1-0.1-0.2-0.3-0.1-0.6
		c0-0.3,0.2-0.4,0.4-0.5c0,0,0,0,0,0c0.3-1.5,0.3-2.8,0.1-3.9c-0.3,0-0.5,0.1-0.7,0.3c-0.3,0.2-0.7,0.5-1.4,0.5
		c-0.2,0-0.3-0.1-0.4-0.3c-0.1-0.1-0.2-0.3-0.3-0.4c-0.2-0.2-0.4-0.5-0.5-0.9c0-0.1,0-0.2,0-0.3c0.1-0.3,0.2-0.5,0.3-0.6
		c0.1-0.2,0.2-0.3,0.2-0.5c-0.7-0.4-1.6-0.5-2.3-0.3c-0.4,0.1-1,0.4-1.2,1c-0.1,0.2-0.3,0.3-0.6,0.3c-0.3-0.1-0.5-0.3-0.6-0.4
		c-0.1-0.1-0.1-0.1-0.3-0.1c-0.1,0.1-0.2,0.2-0.3,0.3c-0.3,0.4-0.6,0.8-1.4,0.9c0,0-0.1,0-0.1,0c-1.1-0.1-1.8,0-2.3,0.4
		c-0.7,0.6-0.8,1.7-0.9,3.1c0,0.2,0,0.3,0,0.5c0,0.1-0.1,0.3-0.2,0.3c-0.1,0.1-0.2,0.1-0.4,0.1c-0.2,0-0.4,0-0.6,0
		c0,0.1,0,0.1,0,0.2c0,0.1,0,0.1,0,0.2c0,0,0.1,0.1,0.2,0.1c0.3,0.1,0.7,0.3,0.9,0.6c0.1,0.2,0.1,0.4,0,0.9c0,0.1,0,0.3,0,0.4
		c0.2,0.3,0.5,0.5,0.7,0.8c0.2,0.2,0.4,0.4,0.6,0.7c0.1,0.1,0.3,0.2,0.4,0.4c0.2,0.2,0.5,0.3,0.7,0.7c0.2,0.3,0.1,0.5,0.1,0.7
		c0,0,0,0,0,0c0,0,0,0,0.1,0c0.2,0.1,0.4,0.2,0.5,0.4c0.1,0.3,0,0.5,0,0.6c0.2,0.5,0.4,1,0.6,1.5c0,0.1,0,0.1,0,0.2
		c0,0.3,0,0.7-0.1,1c0,0.9-0.1,1.8-0.4,2.4c-0.1,0.2-0.3,0.5-0.9,0.3c-0.2,0.6-0.4,1.2-0.4,2c0.4,0.4,0.8,0.7,1.2,1.1
		c1,0.8,2,1.6,2.5,2.9c0,0,0,0,0,0c0.2,0.9-0.1,1.3-0.3,1.7c-0.1,0.1-0.1,0.2-0.2,0.3c1,1.4,2,3.8,1.7,6.2c0,0.1-0.1,0.2-0.2,0.3
		c-2,1.7-3.4,4.1-4.1,7.3l-0.4-0.5l-0.4-0.5c-0.1,0.2-0.1,0.4-0.2,0.6l0.4,0.4l0.4,0.4c-0.2,1.1-0.4,2.3-0.6,3.5h1.2
		c0.2,0,0.4,0.2,0.5,0.4c0.2,0.9,1,1.5,1.8,2.2c0.9,0.7,1.8,1.5,1.9,2.6c0,0.2-0.1,0.4-0.1,0.6c0.6,0.5,1.4,0.8,2.3,1.1
		c1.1,0.4,2.2,0.8,3,1.6c0.1,0.1,0.1,0.2,0.1,0.3v1.4c0.7-0.2,1.3-0.1,1.7-0.1c0.3,0,0.7,0,1,0c0.1-0.2,0.2-0.5,0.2-0.7
		c0-0.2,0.1-0.5,0.2-0.7c-0.5-0.2-0.7-0.6-0.8-1c-0.2-0.4-0.3-0.7-0.8-0.9c-0.6-0.3-1.5-0.4-2.3-0.5c-1.2-0.2-2.3-0.3-2.9-1.1
		c-0.4-0.5-0.5-1.2-0.3-2.1c0-0.1,0.1-0.3,0.2-0.3c0.1-0.1,0.3-0.1,0.4-0.1c0.3,0.1,0.5,0.2,0.6,0.3c0,0,0.1,0.1,0.1,0.1
		c-0.3-1-0.8-1.7-1.3-2.5c-0.6-0.9-1.3-1.9-1.5-3.3c-0.1,0-0.2,0.1-0.3,0.2c-0.2,0.2-0.5,0.4-0.8,0.3c-0.2,0-0.4-0.2-0.6-0.4
		c0-0.1-0.1-0.2-0.1-0.3c0-0.6,0-1.2-0.1-1.8c-0.1-0.9-0.2-1.9,0.1-3.3c0-0.1,0.1-0.2,0.2-0.3c2-1.2,2.1-4.4,2.3-7.5l0-0.3
		c0-0.1,0-0.3,0-0.5c0-0.2,0-0.4,0-0.7c0-0.3,0.1-0.6,0.1-0.8c0-0.2,0.1-0.4,0.1-0.6c0-0.3,0.3-0.5,0.5-0.4c0.5,0,0.9,0,1.4-0.1
		c0.9-0.1,1.9-0.3,2.5,0.8c0,0.1,0,0.1,0.1,0.2c0.1,0.5,0,0.9-0.1,1.2c-0.1,0.3-0.1,0.6-0.1,0.7c2.2-0.5,4.6,0,5.2,1.7
		c0.1,0.1,0.2,0.3,0.3,0.4c0.4,0.1,0.8,0.2,1.2,0.3c-0.2-1-0.5-1.9-0.8-2.9L87.3,60c0,0-0.1,0-0.1,0c-0.2-0.1-0.5-0.2-0.7-0.6
		c-0.1-0.4-0.1-0.8,0-1.3c0-0.2,0.1-0.5,0-0.6c0-0.3,0.2-0.5,0.4-0.5c0.7-0.1,1-0.5,1.4-1.2c0.3-0.5,0.6-1.1,1.2-1.4c0,0,0,0,0,0
		c1-0.5,2.1-0.3,3.1-0.2c1,0.1,1.9,0.3,2.6-0.1c0.2-0.1,0.4-0.1,0.5,0c0.7,0.5,1.3,0.7,1.7,0.4C98.5,53.7,98.7,50.7,98.2,48.4z
		 M76.9,73.8C76.9,73.8,76.9,73.8,76.9,73.8C76.9,73.8,76.9,73.8,76.9,73.8C76.9,73.8,76.9,73.8,76.9,73.8z M78,72.1
		c-0.1,0-0.2-0.1-0.2-0.1c0.1,0.1,0.2,0.1,0.4,0.2C78.1,72.1,78,72.1,78,72.1z M77.8,72.5c0,0-0.1,0-0.2,0c0.1,0,0.2,0.1,0.3,0.1
		C77.8,72.6,77.8,72.5,77.8,72.5z M77.6,73C77.6,73,77.6,73.1,77.6,73c0,0.1,0.1,0.1,0.2,0.2C77.7,73.1,77.6,73.1,77.6,73z"/>
	<path d="M115.6,61.7l-0.6,0.4l-9.8,6.6l1-4.1L88.6,82.8l10.2-6.6l-1.3,6L115,63l0.6-0.7l1.2-1.4L115.6,61.7z M53.9,65.1l0.4,3.4
		l-9.3-7.7l-0.6-0.5l-0.6-0.5l0.6,0.8l0.6,0.8l16.5,21.1l-1.1-6.2l10.1,6.6L53.9,65.1z"/>
	<polygon points="97,67.5 97.2,63.1 94,66 99.8,58.2 99.7,61.9 103.9,58 	"/>
	<path class="st0" d="M43.7,59.8l0.6,0.8v-0.3L43.7,59.8z M115.6,61.7c0,0.2,0,0.4,0,0.6l1.2-1.4L115.6,61.7z"/>
</g>
<path d="M68.6,69.9l-9-12.6l0,3.1l-8-7.1l11.4,17L63,65L68.6,69.9z M55.1,57.2l5.1,4.6l0-2.5l4.6,6.4l-2.5-2.2l0.1,4.5L55.1,57.2z"
	/>
<path d="M88.9,65.9c0,0.3-0.3,0.6-0.6,0.8c-0.1,0.1-0.2,0.1-0.3,0.1c-0.2,0-0.4-0.1-0.6-0.4c0,0,0,0,0,0c-0.1-0.1-0.2-0.2-0.4-0.5
	c0-0.1-0.1-0.2-0.1-0.3c0-0.1,0-0.2,0-0.3c-0.1,0.1-0.3,0.1-0.5,0.1c-0.2,0-0.3,0-0.5-0.1c-0.2-0.2-0.2-0.5-0.3-0.9
	c0-0.1,0-0.1,0-0.2c-0.1-0.2,0-0.5,0.3-0.7c0.1,0,0.1-0.1,0.2-0.1c0.2-0.1,0.4,0,0.6,0.1c0.1,0.1,0.2,0.2,0.3,0.4c0,0,0,0,0,0
	c0,0,0,0,0,0c0.2,0.1,0.3,0.2,0.4,0.3c0,0.1,0.1,0.1,0.1,0.2c0.3,0,0.8,0,1.1,0.4c0,0,0,0.1,0.1,0.1C89,65.7,89,65.8,88.9,65.9z"/>
<path d="M77.6,73C77.6,73,77.6,73.1,77.6,73c0,0.1,0.1,0.1,0.2,0.2C77.7,73.1,77.6,73.1,77.6,73z M77.6,73
	C77.6,73,77.6,73.1,77.6,73c0,0.1,0.1,0.1,0.2,0.2C77.7,73.1,77.6,73.1,77.6,73z M98.2,48.4c-0.8,0.1-1.5-0.1-2-0.6
	c-0.9-0.8-1.3-2.5-1.2-4.9c-1.1-0.6-2.4-1.3-2.7-3c-0.6,0-1.1-0.2-1.5-0.4c-0.2-0.1-0.4-0.2-0.6-0.2c-0.7,1.4-1.1,2.2-1.6,2.5
	c-0.4,0.3-0.8,0-1-0.2c0,0-0.1-0.1-0.1-0.1c-0.4,0-0.7-0.2-1.1-0.4c-0.3-0.2-0.6-0.3-1.1-0.5c-0.2,0.2-0.4,0.4-0.6,0.5
	c-0.4,0.4-0.9,0.8-1.2,1.2c-0.1,0.1-0.1,0.2-0.2,0.2c-0.1,0.2-0.3,0.5-0.8,0.7c-0.3,0.1-0.7-0.1-0.8-0.2c-0.1,0-0.1-0.1-0.2-0.1
	c-0.2,0-0.3-0.1-0.4-0.2c-0.1-0.1-0.1-0.3-0.1-0.4c0-0.2,0.1-0.4,0.2-0.6c0.1-0.4,0.2-0.9,0.3-1.3c-0.1-0.1-0.2-0.3-0.1-0.6
	c0-0.3,0.2-0.4,0.4-0.5c0,0,0,0,0,0c0.3-1.5,0.3-2.8,0.1-3.9c-0.3,0-0.5,0.1-0.7,0.3c-0.3,0.2-0.7,0.5-1.4,0.5
	c-0.2,0-0.3-0.1-0.4-0.3c-0.1-0.1-0.2-0.3-0.3-0.4c-0.2-0.2-0.4-0.5-0.5-0.9c0-0.1,0-0.2,0-0.3c0.1-0.3,0.2-0.5,0.3-0.6
	c0.1-0.2,0.2-0.3,0.2-0.5c-0.7-0.4-1.6-0.5-2.3-0.3c-0.4,0.1-1,0.4-1.2,1c-0.1,0.2-0.3,0.3-0.6,0.3c-0.3-0.1-0.5-0.3-0.6-0.4
	c-0.1-0.1-0.1-0.1-0.3-0.1c-0.1,0.1-0.2,0.2-0.3,0.3c-0.3,0.4-0.6,0.8-1.4,0.9c0,0-0.1,0-0.1,0c-1.1-0.1-1.8,0-2.3,0.4
	c-0.7,0.6-0.8,1.7-0.9,3.1c0,0.2,0,0.3,0,0.5c0,0.1-0.1,0.3-0.2,0.3c-0.1,0.1-0.2,0.1-0.4,0.1c-0.2,0-0.4,0-0.6,0c0,0.1,0,0.1,0,0.2
	c0,0.1,0,0.1,0,0.2c0,0,0.1,0.1,0.2,0.1c0.3,0.1,0.7,0.3,0.9,0.6c0.1,0.2,0.1,0.4,0,0.9c0,0.1,0,0.3,0,0.4c0.2,0.3,0.5,0.5,0.7,0.8
	c0.2,0.2,0.4,0.4,0.6,0.7c0.1,0.1,0.3,0.2,0.4,0.4c0.2,0.2,0.5,0.3,0.7,0.7c0.2,0.3,0.1,0.5,0.1,0.7c0,0,0,0,0,0c0,0,0,0,0.1,0
	c0.2,0.1,0.4,0.2,0.5,0.4c0.1,0.3,0,0.5,0,0.6c0.2,0.5,0.4,1,0.6,1.5c0,0.1,0,0.1,0,0.2c0,0.3,0,0.7-0.1,1c0,0.9-0.1,1.8-0.4,2.4
	c-0.1,0.2-0.3,0.5-0.9,0.3c-0.2,0.6-0.4,1.2-0.4,2c0.4,0.4,0.8,0.7,1.2,1.1c1,0.8,2,1.6,2.5,2.9c0,0,0,0,0,0
	c0.2,0.9-0.1,1.3-0.3,1.7c-0.1,0.1-0.1,0.2-0.2,0.3c1,1.4,2,3.8,1.7,6.2c0,0.1-0.1,0.2-0.2,0.3c-2,1.7-3.4,4.1-4.1,7.3l-0.4-0.5
	l-0.4-0.5c-0.1,0.2-0.1,0.4-0.2,0.6l0.4,0.4l0.4,0.4c-0.2,1.1-0.4,2.3-0.6,3.5h1.2c0.2,0,0.4,0.2,0.5,0.4c0.2,0.9,1,1.5,1.8,2.2
	c0.9,0.7,1.8,1.5,1.9,2.6c0,0.2-0.1,0.4-0.1,0.6c0.6,0.5,1.4,0.8,2.3,1.1c1.1,0.4,2.2,0.8,3,1.6c0.1,0.1,0.1,0.2,0.1,0.3v1.4
	c0.7-0.2,1.3-0.1,1.7-0.1c0.3,0,0.7,0,1,0c0.1-0.2,0.2-0.5,0.2-0.7c0-0.2,0.1-0.5,0.2-0.7c-0.5-0.2-0.7-0.6-0.8-1
	c-0.2-0.4-0.3-0.7-0.8-0.9c-0.6-0.3-1.5-0.4-2.3-0.5c-1.2-0.2-2.3-0.3-2.9-1.1c-0.4-0.5-0.5-1.2-0.3-2.1c0-0.1,0.1-0.3,0.2-0.3
	c0.1-0.1,0.3-0.1,0.4-0.1c0.3,0.1,0.5,0.2,0.6,0.3c0,0,0.1,0.1,0.1,0.1c-0.3-1-0.8-1.7-1.3-2.5c-0.6-0.9-1.3-1.9-1.5-3.3
	c-0.1,0-0.2,0.1-0.3,0.2c-0.2,0.2-0.5,0.4-0.8,0.3c-0.2,0-0.4-0.2-0.6-0.4c0-0.1-0.1-0.2-0.1-0.3c0-0.6,0-1.2-0.1-1.8
	c-0.1-0.9-0.2-1.9,0.1-3.3c0-0.1,0.1-0.2,0.2-0.3c2-1.2,2.1-4.4,2.3-7.5l0-0.3c0-0.1,0-0.3,0-0.5c0-0.2,0-0.4,0-0.7
	c0-0.3,0.1-0.6,0.1-0.8c0-0.2,0.1-0.4,0.1-0.6c0-0.3,0.3-0.5,0.5-0.4c0.5,0,0.9,0,1.4-0.1c0.9-0.1,1.9-0.3,2.5,0.8
	c0,0.1,0,0.1,0.1,0.2c0.1,0.5,0,0.9-0.1,1.2c-0.1,0.3-0.1,0.6-0.1,0.7c2.2-0.5,4.6,0,5.2,1.7c0.1,0.1,0.2,0.3,0.3,0.4
	c0.4,0.1,0.8,0.2,1.2,0.3c-0.2-1-0.5-1.9-0.8-2.9L87.3,60c0,0-0.1,0-0.1,0c-0.2-0.1-0.5-0.2-0.7-0.6c-0.1-0.4-0.1-0.8,0-1.3
	c0-0.2,0.1-0.5,0-0.6c0-0.3,0.2-0.5,0.4-0.5c0.7-0.1,1-0.5,1.4-1.2c0.3-0.5,0.6-1.1,1.2-1.4c0,0,0,0,0,0c1-0.5,2.1-0.3,3.1-0.2
	c1,0.1,1.9,0.3,2.6-0.1c0.2-0.1,0.4-0.1,0.5,0c0.7,0.5,1.3,0.7,1.7,0.4C98.5,53.7,98.7,50.7,98.2,48.4z M76.9,73.8
	C76.9,73.8,76.9,73.8,76.9,73.8C76.9,73.8,76.9,73.8,76.9,73.8C76.9,73.8,76.9,73.8,76.9,73.8z M78,72.1c-0.1,0-0.2-0.1-0.2-0.1
	c0.1,0.1,0.2,0.1,0.4,0.2C78.1,72.1,78,72.1,78,72.1z M77.8,72.5c0,0-0.1,0-0.2,0c0.1,0,0.2,0.1,0.3,0.1
	C77.8,72.6,77.8,72.5,77.8,72.5z M77.6,73C77.6,73,77.6,73.1,77.6,73c0,0.1,0.1,0.1,0.2,0.2C77.7,73.1,77.6,73.1,77.6,73z"/>
<path d="M115.6,61.7l-0.6,0.4l-9.8,6.6l1-4.1L88.6,82.8l10.2-6.6l-1.3,6L115,63l0.6-0.7l1.2-1.4L115.6,61.7z M53.9,65.1l0.4,3.4
	l-9.3-7.7l-0.6-0.5l-0.6-0.5l0.6,0.8l0.6,0.8l16.5,21.1l-1.1-6.2l10.1,6.6L53.9,65.1z"/>
<polygon points="97,67.5 97.2,63.1 94,66 99.8,58.2 99.7,61.9 103.9,58 "/>
<g>
	<path d="M80,3.1c-31.7,0-57.4,25.6-57.4,57c0,31.5,25.8,57,57.4,57s57.4-25.6,57.4-57C137.4,28.7,111.7,3.1,80,3.1z M80,116.2
		c-31.1,0-56.4-25.1-56.4-56c0-30.9,25.3-56,56.4-56s56.4,25.1,56.4,56C136.4,91.1,111.1,116.2,80,116.2z"/>
	<path d="M80,3C48.3,3,22.4,28.6,22.4,60.2c0,31.5,25.8,57.2,57.6,57.2s57.6-25.7,57.6-57.2C137.6,28.6,111.7,3,80,3z M80,116
		C49,116,23.8,91,23.8,60.2S49,4.3,80,4.3s56.2,25.1,56.2,55.9S111,116,80,116z"/>
	<path d="M80,23.1c-20.6,0-37.3,16.6-37.3,37.1c0,20.5,16.7,37.1,37.3,37.1s37.3-16.6,37.3-37.1C117.3,39.7,100.6,23.1,80,23.1z
		 M115,63C113.5,80.9,98.4,95,80,95c-19,0-34.4-15-35-33.7l-0.6-0.8l-0.6-0.8l0.6,0.5l0.6,0.5c0-0.2,0-0.4,0-0.6
		c0-19.2,15.7-34.8,35.1-34.8s35.1,15.6,35.1,34.8c0,0.7,0,1.3-0.1,1.9l0.6-0.4l1.2-0.8l-1.2,1.4L115,63z"/>
</g>
<g>
	<path d="M47.6,94.2L44.8,97L44,96.1l2.8-2.7C47,93.2,47,93,47,92.8c0-0.3-0.2-0.5-0.4-0.8c-0.2-0.2-0.4-0.3-0.7-0.5
		c-0.2-0.1-0.5-0.2-0.7-0.1l0.3,0.3l-3,2.9l-0.8-0.9l2.5-2.5L43.9,91l0.8-0.8c0.2,0.1,0.4,0.1,0.8,0.2s0.7,0.2,0.9,0.3
		c0.3,0.2,0.6,0.4,0.9,0.6c0.4,0.4,0.7,0.9,0.8,1.5C48.2,93.4,48,93.9,47.6,94.2z"/>
	<path d="M50.9,97.2l-2.4,2.9l-0.9-0.8l2.3-2.9c0.2-0.3,0.4-0.5,0.3-0.8c0-0.2-0.1-0.3-0.3-0.5c-0.2-0.2-0.5-0.2-0.8-0.1
		c-0.2,0.1-0.4,0.3-0.7,0.5c0,0-0.1,0.1-0.1,0.1c0,0.1-0.1,0.1-0.1,0.1l-0.9-0.8c0.4-0.5,0.9-0.9,1.3-1c0.6-0.2,1.2-0.1,1.8,0.4
		c0.5,0.4,0.8,0.9,0.8,1.3C51.5,96.2,51.3,96.7,50.9,97.2z"/>
	<path d="M53,97.9c0.2,0,0.3,0,0.5,0.2c0.1,0.1,0.4,0.3,0.8,0.6c0.2,0.1,0.3,0.3,0.4,0.3c0.1,0.1,0.2,0.1,0.3,0.2
		c0.1,0,0.2,0.1,0.3,0.1l0.6-0.9c-0.2,0-0.3-0.1-0.4-0.1s-0.2-0.1-0.3-0.2c-0.1-0.1-0.2-0.2-0.4-0.3c-0.3-0.3-0.5-0.5-0.7-0.6
		c-0.7-0.4-1.3-0.5-1.9-0.2c-0.5,0.2-1,0.7-1.5,1.5l1.1,0.8c0.1-0.1,0.2-0.2,0.3-0.2c0.1,0,0.2,0,0.3,0.1l1,0.7l-1,1.4
		c-0.1,0.1-0.2,0.2-0.3,0.2c-0.1,0-0.2,0-0.4-0.1c0.1-0.1,0.2-0.1,0.2-0.2c0,0,0.1-0.1,0.2-0.2c0.2-0.3,0.2-0.6,0.2-0.9
		s-0.2-0.6-0.5-0.8s-0.6-0.2-0.9-0.2c-0.3,0.1-0.6,0.2-0.8,0.5c-0.3,0.4-0.3,0.8-0.1,1.3c0.2,0.4,0.5,0.7,0.9,1
		c0.5,0.3,0.9,0.5,1.3,0.5c0.4,0,0.8-0.2,1-0.6l1.5-2.3l-2-1.4c-0.1-0.1-0.2-0.1-0.3-0.1c0,0-0.1,0-0.1,0C52.7,98.1,52.8,98,53,97.9
		z M51.7,100.7c-0.1,0.1-0.1,0.1-0.2,0.2c-0.1,0-0.2,0-0.3-0.1c-0.1-0.1-0.1-0.1-0.2-0.2c0-0.1,0-0.2,0.1-0.3
		c0.1-0.1,0.1-0.1,0.2-0.2c0.1,0,0.2,0,0.3,0.1c0.1,0.1,0.2,0.1,0.2,0.2C51.7,100.5,51.7,100.6,51.7,100.7z"/>
	<path d="M59.5,96.9c-0.1-0.2-0.2-0.4-0.5-0.6l-1,0.2l-0.7-1.1l-0.5,1l0.6,1.1l0.8-0.1c0.1,0,0.1,0.1,0.1,0.2l-3,5.5
		c-0.2,0.3-0.2,0.7-0.2,1c0.1,0.4,0.3,0.6,0.7,0.9c0.3,0.2,0.7,0.2,1,0.1c0.3-0.1,0.6-0.3,0.8-0.6c0.2-0.3,0.2-0.6,0.1-0.9
		c-0.1-0.3-0.3-0.6-0.6-0.7c0,0-0.1,0-0.1-0.1c0,0-0.1,0-0.1,0l2.5-4.7C59.6,97.6,59.6,97.3,59.5,96.9z M56.8,103.7
		c0,0.1,0,0.2,0,0.3c-0.1,0.1-0.1,0.2-0.2,0.2c-0.1,0-0.2,0-0.3,0c-0.1-0.1-0.2-0.1-0.2-0.2c0-0.1,0-0.2,0-0.3
		c0.1-0.1,0.1-0.2,0.2-0.2c0.1,0,0.2,0,0.3,0C56.8,103.5,56.8,103.6,56.8,103.7z"/>
	<path d="M64.4,101.1l-1.8,4.4l0.2-3.5l-2.2,2.6l0.8-1.9c0.1-0.4,0.2-0.7,0-1c-0.1-0.4-0.4-0.6-0.8-0.8c-0.3-0.1-0.7-0.1-1,0
		s-0.6,0.4-0.7,0.7s-0.1,0.6,0,1s0.3,0.5,0.7,0.7c0.1,0,0.1,0,0.1,0c0,0,0.1,0,0.1,0l-1.2,2.9l1.4,0.6l1.6-1.9l-0.1,2.6l1.3,0.5
		l2.7-6.5L64.4,101.1z M60.4,102.3c-0.1,0.1-0.1,0.2-0.2,0.2c-0.1,0-0.2,0-0.3,0c-0.1-0.1-0.2-0.1-0.2-0.2c0-0.1,0-0.2,0-0.3
		c0-0.1,0.1-0.2,0.2-0.2c0.1,0,0.2,0,0.3,0c0.1,0,0.2,0.1,0.2,0.2C60.4,102.1,60.4,102.2,60.4,102.3z"/>
	<path d="M70.2,102.8l-1.2,4.6l-0.3-3.5l-1.8,2.9l0.5-2c0.1-0.4,0.1-0.7-0.1-1c-0.2-0.3-0.5-0.6-0.9-0.7c-0.4-0.1-0.7,0-1,0.1
		c-0.3,0.2-0.5,0.5-0.6,0.8c-0.1,0.3,0,0.6,0.1,0.9c0.2,0.3,0.4,0.5,0.8,0.6c0,0,0.1,0,0.1,0c0,0,0.1,0,0.1,0l-0.8,3l1.5,0.4L68,107
		l0.3,2.6l1.4,0.4l1.8-6.8L70.2,102.8z M66.4,104.6c0,0.1-0.1,0.2-0.2,0.2c-0.1,0-0.2,0.1-0.3,0c-0.1,0-0.2-0.1-0.2-0.2
		c0-0.1-0.1-0.2,0-0.3c0-0.1,0.1-0.2,0.2-0.2c0.1,0,0.2-0.1,0.3,0c0.1,0,0.2,0.1,0.2,0.2C66.4,104.4,66.4,104.5,66.4,104.6z"/>
	<path d="M69.8,101.6c-0.2,0.1-0.3,0.1-0.4,0.2c-0.3,0.1-0.6,0.2-0.9,0.2c0.1-0.2,0.2-0.4,0.3-0.6c0-0.3,0-0.5-0.1-0.7
		c-0.1-0.2-0.3-0.3-0.6-0.4c-0.3-0.1-0.5,0-0.7,0.1S67,100.7,67,101c0,0.2,0,0.4,0.1,0.6c0.1,0.1,0.2,0.2,0.4,0.3
		c0,0-0.1,0.1-0.2,0.1c-0.1,0-0.2,0.1-0.4,0.1l0.2,0.8c0.5,0,1,0,1.6-0.1c0.6-0.1,1.1-0.2,1.4-0.4L69.8,101.6z M68,101.3
		c0,0-0.1,0-0.2,0c-0.1,0-0.1,0-0.2-0.1c0-0.1,0-0.1,0-0.2c0-0.1,0-0.1,0.1-0.2c0,0,0.1-0.1,0.2,0s0.1,0.1,0.2,0.1c0,0,0,0.1,0,0.2
		C68.1,101.2,68,101.3,68,101.3z"/>
	<path d="M74.9,106.8l-0.5,3.8l-1.2-0.2l0.5-3.7c0-0.4,0-0.7-0.1-0.8c-0.1-0.1-0.3-0.2-0.5-0.3c-0.3,0-0.5,0.1-0.7,0.3
		c-0.1,0.2-0.2,0.5-0.3,0.8c0,0,0,0.1,0,0.2c0,0.1,0,0.1,0,0.1l-1.2-0.2c0.1-0.7,0.3-1.2,0.6-1.6c0.4-0.5,1-0.7,1.7-0.6
		c0.6,0.1,1.1,0.3,1.4,0.7S75,106.2,74.9,106.8z"/>
	<path d="M80.7,106.5c-0.1-0.3-0.4-0.6-0.7-0.8l0.8-0.9l-1.6,0l-0.4,0.5c-0.1,0-0.2,0-0.3,0c-0.1,0-0.2,0-0.4,0
		c-0.7,0-1.3,0.1-1.8,0.4c-0.5,0.3-0.8,0.7-1,1.2l1.2,0c0.1-0.3,0.3-0.5,0.6-0.6c0.3-0.1,0.6-0.2,0.9-0.2c0.5,0,1,0.2,1.3,0.5
		c0.3,0.3,0.4,0.8,0.4,1.3c0,0.3-0.1,0.6-0.2,0.9c-0.1-0.5-0.2-1-0.4-1.3c-0.3-0.5-0.7-0.7-1.2-0.7c-0.6,0-1.1,0.2-1.5,0.7
		c-0.3,0.4-0.5,1-0.6,1.6c0,0.5,0.1,0.9,0.4,1.3c0.3,0.4,0.6,0.5,1,0.6c0.3,0,0.6-0.1,0.9-0.3s0.4-0.5,0.4-0.9
		c0-0.4-0.1-0.7-0.3-0.9s-0.5-0.4-0.8-0.4c-0.1,0-0.2,0-0.2,0c0-0.1,0.1-0.3,0.2-0.4c0.1-0.2,0.3-0.3,0.5-0.2c0.4,0,0.7,0.4,0.9,1
		c0.2,0.6,0.3,1.3,0.3,2.1l1.5,0c0-0.4,0.1-0.8,0.2-1.3c0.2-1,0.3-1.7,0.3-1.9C80.9,107.2,80.9,106.8,80.7,106.5z M77.3,109.3
		c0.1,0,0.2,0,0.3,0.1c0.1,0.1,0.1,0.2,0.1,0.3c0,0.1,0,0.2-0.1,0.3c-0.1,0.1-0.2,0.1-0.3,0.1c-0.1,0-0.2,0-0.3-0.1
		s-0.1-0.2-0.1-0.3c0-0.1,0-0.2,0.1-0.3C77.1,109.3,77.2,109.3,77.3,109.3z"/>
	<polygon points="80.6,104.5 79.4,104.5 79.3,102.5 80.5,102.5 	"/>
	<path d="M85.9,106.8c0-0.6-0.3-1-0.7-1.3c-0.4-0.3-1-0.4-1.6-0.3c-0.8,0.1-1.4,0.3-1.8,0.8c-0.4,0.4-0.5,1-0.4,1.7l1.2-0.1
		c0-0.4,0-0.8,0.2-1c0.2-0.3,0.4-0.4,0.8-0.4c0.3,0,0.6,0,0.8,0.2c0.2,0.2,0.3,0.4,0.3,0.7l0.1,1.3c0,0-0.1,0-0.1,0s-0.1,0-0.2,0
		c-0.3,0-0.6,0.2-0.8,0.4c-0.2,0.3-0.3,0.6-0.3,0.9c0,0.4,0.2,0.7,0.5,0.9c0.3,0.2,0.6,0.3,1,0.3c0.4,0,0.7-0.2,0.9-0.5
		c0.2-0.3,0.3-0.7,0.3-1.1L85.9,106.8z M85,109.7c-0.1,0.1-0.2,0.1-0.3,0.1s-0.2,0-0.3-0.1c-0.1-0.1-0.1-0.2-0.1-0.3s0-0.2,0.1-0.3
		c0.1-0.1,0.2-0.1,0.3-0.1s0.2,0,0.3,0.1c0.1,0.1,0.1,0.2,0.1,0.3C85.1,109.6,85.1,109.7,85,109.7z"/>
	<path d="M93.9,107.9c0-0.1,0-0.2-0.1-0.3c-0.1-0.2-0.2-0.4-0.4-0.5c-0.3-0.2-0.6-0.2-0.9-0.2l-0.2,0l-0.7-3.1l-1.2,0.2l0.7,3.2
		l-1.5,1.4l-0.6-2.9c-0.1-0.4-0.3-0.7-0.5-0.9c-0.3-0.2-0.7-0.3-1.1-0.2c-0.3,0.1-0.6,0.3-0.8,0.6c-0.2,0.3-0.2,0.6-0.2,1
		c0.1,0.3,0.2,0.6,0.5,0.8c0.3,0.2,0.6,0.2,0.9,0.2c0,0,0.1,0,0.1,0c0,0,0.1,0,0.1,0l0.7,3l1.3-0.3l1.3-1.3c0.1,0.3,0.3,0.5,0.6,0.7
		c0.3,0.2,0.6,0.2,0.9,0.1c0.3-0.1,0.6-0.2,0.8-0.5C93.8,108.6,93.9,108.3,93.9,107.9C93.9,108,93.9,107.9,93.9,107.9z M87.9,106.2
		c-0.1,0.1-0.2,0.1-0.3,0.2c-0.1,0-0.2,0-0.3,0c-0.1-0.1-0.2-0.2-0.2-0.3c0-0.1,0-0.2,0-0.3c0.1-0.1,0.2-0.2,0.3-0.2
		c0.1,0,0.2,0,0.3,0.1c0.1,0.1,0.2,0.1,0.2,0.3C88,106,88,106.1,87.9,106.2z M93,108.4c-0.1,0.1-0.1,0.1-0.3,0.2c-0.1,0-0.2,0-0.3,0
		c-0.1-0.1-0.1-0.2-0.2-0.3s0-0.2,0.1-0.3c0.1-0.1,0.2-0.2,0.3-0.2c0.1,0,0.2,0,0.3,0c0.1,0.1,0.2,0.1,0.2,0.3
		C93.1,108.2,93,108.3,93,108.4z"/>
	<path d="M98.3,103.4c-0.2-0.5-0.5-0.8-1.1-1c-0.5-0.1-1.1-0.1-1.7,0.1c-0.4,0.1-0.7,0.3-1,0.6c-0.2,0.2-0.5,0.4-0.8,0.8
		s-0.5,0.5-0.6,0.7l0.4,1.1l1-0.4l0.3,0.9c0,0,0,0-0.1,0c0,0-0.1,0-0.2,0c-0.3,0.1-0.5,0.3-0.7,0.6c-0.1,0.2-0.2,0.5-0.1,0.7
		c0,0.1,0,0.2,0.1,0.3c0,0,0,0,0,0.1c0.1,0.3,0.3,0.5,0.6,0.6c0.3,0.2,0.6,0.2,1,0.1c0.4-0.2,0.7-0.4,0.9-0.8c0.1-0.3,0.1-0.7,0-1
		l-1-2.7l-0.6,0.2c0-0.2,0.2-0.3,0.3-0.5c0.2-0.2,0.5-0.4,0.7-0.5c0.3-0.1,0.6-0.1,0.9,0c0.3,0.1,0.5,0.3,0.5,0.5l1.3,3.5l1.1-0.4
		L98.3,103.4z M95.2,107.1c0.1,0.1,0.2,0.1,0.2,0.2c0,0.1,0,0.2,0,0.3c0,0.1-0.1,0.2-0.2,0.2c-0.1,0-0.2,0-0.3,0
		c-0.1,0-0.2-0.1-0.2-0.2s0-0.2,0-0.3c0-0.1,0.1-0.2,0.2-0.2C95,107.1,95.1,107.1,95.2,107.1z"/>
	<path d="M99.9,107.7l-1.2,0.5l0.8,1.9l-0.7,0.3l-0.3-0.8c-0.1-0.3-0.3-0.5-0.6-0.6c-0.3-0.1-0.6-0.1-0.9,0
		c-0.3,0.1-0.4,0.3-0.5,0.5c-0.1,0.2-0.1,0.5,0,0.7s0.3,0.4,0.5,0.5c0.2,0.1,0.4,0.1,0.6,0l0.4,0.9l3.1-1.4L99.9,107.7z M97.6,110
		c0,0.1-0.1,0.1-0.2,0.2c-0.1,0-0.2,0-0.3,0c-0.1,0-0.1-0.1-0.2-0.2c0-0.1,0-0.2,0-0.2c0-0.1,0.1-0.2,0.2-0.2c0.1,0,0.2,0,0.3,0
		c0.1,0,0.1,0.1,0.2,0.2C97.6,109.8,97.6,109.9,97.6,110z"/>
	<path d="M103,99.1l-1,0.5l2,3.9l-2-0.1l-0.9-1.8c-0.2-0.4-0.4-0.6-0.8-0.7c-0.3-0.1-0.7-0.1-1.1,0.1c-0.3,0.2-0.5,0.4-0.6,0.8
		c-0.1,0.3-0.1,0.7,0.1,1c0.2,0.3,0.4,0.5,0.7,0.6c0.3,0.1,0.6,0.1,0.9-0.1c0,0,0.1,0,0.1-0.1c0,0,0.1,0,0.1-0.1l0.3,0.6
		c0,0-0.1,0-0.1,0c0,0-0.1,0.1-0.2,0.1c-0.3,0.2-0.5,0.4-0.6,0.8c-0.1,0.3-0.1,0.7,0.1,1c0.2,0.3,0.4,0.5,0.8,0.7s0.7,0.1,1-0.1
		c0.3-0.2,0.5-0.4,0.7-0.7c0.1-0.2,0.2-0.5,0.1-0.8l1.7,0.1l1.4-0.7L103,99.1z M100.2,102.4c0,0.1-0.1,0.2-0.2,0.2
		c-0.1,0-0.2,0.1-0.3,0c-0.1,0-0.2-0.1-0.2-0.2c0-0.1-0.1-0.2,0-0.3c0-0.1,0.1-0.2,0.2-0.2c0.1,0,0.2-0.1,0.3,0
		c0.1,0,0.2,0.1,0.2,0.2C100.2,102.2,100.2,102.3,100.2,102.4z M101.6,105.2c0,0.1-0.1,0.2-0.2,0.3c-0.1,0.1-0.2,0.1-0.3,0
		c-0.1,0-0.2-0.1-0.3-0.2s-0.1-0.2,0-0.3c0-0.1,0.1-0.2,0.2-0.3s0.2-0.1,0.3,0c0.1,0,0.2,0.1,0.3,0.2S101.6,105.1,101.6,105.2z"/>
	<path d="M101.7,97.5c-0.5,0.1-1,0.1-1.5,0.2c-0.5,0.1-0.9,0.2-1.2,0.4c-0.3,0.2-0.5,0.4-0.8,0.7c-0.1,0.1-0.2,0.3-0.5,0.8
		c-0.2,0.3-0.3,0.5-0.5,0.5l0.5,0.8l4.4-2.7L101.7,97.5z M98.7,99.6c0.1-0.2,0.2-0.3,0.3-0.5c0.1-0.2,0.3-0.3,0.4-0.4
		c0.2-0.1,0.3-0.2,0.6-0.2c0.2-0.1,0.4-0.1,0.6-0.1L98.7,99.6z"/>
	<path d="M106.5,97.9c0.3-0.2,0.6-0.3,0.9-0.3c0.3,0,0.5,0.1,0.7,0.4l2.2,3.1l1-0.7l-2.2-3.2c-0.3-0.5-0.8-0.7-1.3-0.7
		c-0.5,0-1.1,0.2-1.6,0.5c-0.3,0.2-0.6,0.5-0.8,0.9c-0.2,0.2-0.3,0.5-0.5,0.9c-0.2,0.4-0.4,0.7-0.4,0.8l0.7,1l0.8-0.6l0.6,0.8
		c0,0,0,0-0.1,0c0,0-0.1,0-0.1,0.1c-0.3,0.2-0.5,0.5-0.5,0.8c-0.1,0.3,0,0.6,0.2,0.9c0.2,0.3,0.5,0.5,0.8,0.5c0.3,0.1,0.6,0,0.9-0.2
		c0.4-0.3,0.6-0.6,0.6-1c0-0.3,0-0.7-0.3-1l-1.6-2.3l-0.5,0.4c0-0.2,0.1-0.4,0.2-0.6C106.1,98.2,106.3,98,106.5,97.9z M106.6,101.7
		c0.1-0.1,0.2-0.1,0.3-0.1c0.1,0,0.2,0.1,0.3,0.2c0.1,0.1,0.1,0.2,0.1,0.3s-0.1,0.2-0.2,0.3c-0.1,0.1-0.2,0.1-0.3,0.1
		c-0.1,0-0.2-0.1-0.3-0.2c-0.1-0.1-0.1-0.2-0.1-0.3C106.5,101.8,106.5,101.7,106.6,101.7z"/>
	<path d="M114.9,97.2L114,98l-2.4-2.8c-0.2-0.3-0.5-0.4-0.7-0.5c-0.2,0-0.4,0.1-0.5,0.2c-0.2,0.2-0.3,0.4-0.2,0.7
		c0.1,0.2,0.2,0.5,0.4,0.7c0,0,0.1,0.1,0.1,0.1c0,0,0.1,0.1,0.1,0.1l-0.9,0.8c-0.4-0.5-0.7-1-0.8-1.5c-0.1-0.7,0.1-1.2,0.6-1.7
		c0.5-0.4,1-0.6,1.4-0.6c0.5,0,0.9,0.2,1.3,0.7L114.9,97.2z"/>
	<path d="M114.7,91c0.3-0.1,0.5,0,0.8,0.2l2.8,2.6l0.8-0.9l-2.9-2.6c-0.5-0.4-1-0.6-1.5-0.4c-0.5,0.1-1,0.5-1.6,1.1
		c-0.6,0.6-0.9,1.2-0.9,1.8c0,0.6,0.2,1,0.7,1.5c0.2,0.2,0.5,0.4,0.8,0.6c0.4,0.2,0.7,0.5,1.1,0.7c0.4,0.2,0.7,0.5,1.1,0.8l0.9-1
		l-1.4-1.7c0.1,0,0.2-0.1,0.3-0.2c0.2-0.2,0.3-0.5,0.3-0.8c0-0.3-0.1-0.5-0.3-0.7c-0.2-0.2-0.5-0.3-0.8-0.3c-0.3,0-0.5,0.1-0.7,0.3
		c-0.2,0.2-0.3,0.5-0.3,0.7c0,0.3,0.1,0.6,0.3,0.8l0.4,0.6c-0.2-0.1-0.3-0.2-0.4-0.3c-0.1-0.1-0.2-0.2-0.4-0.3
		c-0.3-0.3-0.5-0.6-0.5-0.9c0-0.4,0.1-0.7,0.5-1.1C114.1,91.2,114.4,91,114.7,91z M114.6,92.6c0-0.1,0-0.2,0.1-0.3
		c0.1-0.1,0.2-0.1,0.3-0.1s0.2,0,0.3,0.1c0.1,0.1,0.1,0.2,0.1,0.3c0,0.1,0,0.2-0.1,0.3S115.1,93,115,93c-0.1,0-0.2,0-0.3-0.1
		S114.6,92.7,114.6,92.6z"/>
</g>
<path class="st0" d="M60.3,76.2l1.1,6.2L45,61.3c0-0.2,0-0.4,0-0.6l9.3,7.7l-0.4-3.4l16.5,17.7L60.3,76.2z"/>
<path class="st0" d="M68.6,69.9l-9-12.6l0,3.1l-8-7.1l11.4,17L63,65L68.6,69.9z M55.1,57.2l5.1,4.6l0-2.5l4.6,6.4l-2.5-2.2l0.1,4.5
	L55.1,57.2z"/>
<path class="st0" d="M88.9,65.9c0,0.3-0.3,0.6-0.6,0.8c-0.1,0.1-0.2,0.1-0.3,0.1c-0.2,0-0.4-0.1-0.6-0.4c0,0,0,0,0,0
	c-0.1-0.1-0.2-0.2-0.4-0.5c0-0.1-0.1-0.2-0.1-0.3c0-0.1,0-0.2,0-0.3c-0.1,0.1-0.3,0.1-0.5,0.1c-0.2,0-0.3,0-0.5-0.1
	c-0.2-0.2-0.2-0.5-0.3-0.9c0-0.1,0-0.1,0-0.2c-0.1-0.2,0-0.5,0.3-0.7c0.1,0,0.1-0.1,0.2-0.1c0.2-0.1,0.4,0,0.6,0.1
	c0.1,0.1,0.2,0.2,0.3,0.4c0,0,0,0,0,0c0,0,0,0,0,0c0.2,0.1,0.3,0.2,0.4,0.3c0,0.1,0.1,0.1,0.1,0.2c0.3,0,0.8,0,1.1,0.4
	c0,0,0,0.1,0.1,0.1C89,65.7,89,65.8,88.9,65.9z"/>
<path class="st0" d="M77.6,73C77.6,73,77.6,73.1,77.6,73c0,0.1,0.1,0.1,0.2,0.2C77.7,73.1,77.6,73.1,77.6,73z M77.6,73
	C77.6,73,77.6,73.1,77.6,73c0,0.1,0.1,0.1,0.2,0.2C77.7,73.1,77.6,73.1,77.6,73z M98.2,48.4c-0.8,0.1-1.5-0.1-2-0.6
	c-0.9-0.8-1.3-2.5-1.2-4.9c-1.1-0.6-2.4-1.3-2.7-3c-0.6,0-1.1-0.2-1.5-0.4c-0.2-0.1-0.4-0.2-0.6-0.2c-0.7,1.4-1.1,2.2-1.6,2.5
	c-0.4,0.3-0.8,0-1-0.2c0,0-0.1-0.1-0.1-0.1c-0.4,0-0.7-0.2-1.1-0.4c-0.3-0.2-0.6-0.3-1.1-0.5c-0.2,0.2-0.4,0.4-0.6,0.5
	c-0.4,0.4-0.9,0.8-1.2,1.2c-0.1,0.1-0.1,0.2-0.2,0.2c-0.1,0.2-0.3,0.5-0.8,0.7c-0.3,0.1-0.7-0.1-0.8-0.2c-0.1,0-0.1-0.1-0.2-0.1
	c-0.2,0-0.3-0.1-0.4-0.2c-0.1-0.1-0.1-0.3-0.1-0.4c0-0.2,0.1-0.4,0.2-0.6c0.1-0.4,0.2-0.9,0.3-1.3c-0.1-0.1-0.2-0.3-0.1-0.6
	c0-0.3,0.2-0.4,0.4-0.5c0,0,0,0,0,0c0.3-1.5,0.3-2.8,0.1-3.9c-0.3,0-0.5,0.1-0.7,0.3c-0.3,0.2-0.7,0.5-1.4,0.5
	c-0.2,0-0.3-0.1-0.4-0.3c-0.1-0.1-0.2-0.3-0.3-0.4c-0.2-0.2-0.4-0.5-0.5-0.9c0-0.1,0-0.2,0-0.3c0.1-0.3,0.2-0.5,0.3-0.6
	c0.1-0.2,0.2-0.3,0.2-0.5c-0.7-0.4-1.6-0.5-2.3-0.3c-0.4,0.1-1,0.4-1.2,1c-0.1,0.2-0.3,0.3-0.6,0.3c-0.3-0.1-0.5-0.3-0.6-0.4
	c-0.1-0.1-0.1-0.1-0.3-0.1c-0.1,0.1-0.2,0.2-0.3,0.3c-0.3,0.4-0.6,0.8-1.4,0.9c0,0-0.1,0-0.1,0c-1.1-0.1-1.8,0-2.3,0.4
	c-0.7,0.6-0.8,1.7-0.9,3.1c0,0.2,0,0.3,0,0.5c0,0.1-0.1,0.3-0.2,0.3c-0.1,0.1-0.2,0.1-0.4,0.1c-0.2,0-0.4,0-0.6,0c0,0.1,0,0.1,0,0.2
	c0,0.1,0,0.1,0,0.2c0,0,0.1,0.1,0.2,0.1c0.3,0.1,0.7,0.3,0.9,0.6c0.1,0.2,0.1,0.4,0,0.9c0,0.1,0,0.3,0,0.4c0.2,0.3,0.5,0.5,0.7,0.8
	c0.2,0.2,0.4,0.4,0.6,0.7c0.1,0.1,0.3,0.2,0.4,0.4c0.2,0.2,0.5,0.3,0.7,0.7c0.2,0.3,0.1,0.5,0.1,0.7c0,0,0,0,0,0c0,0,0,0,0.1,0
	c0.2,0.1,0.4,0.2,0.5,0.4c0.1,0.3,0,0.5,0,0.6c0.2,0.5,0.4,1,0.6,1.5c0,0.1,0,0.1,0,0.2c0,0.3,0,0.7-0.1,1c0,0.9-0.1,1.8-0.4,2.4
	c-0.1,0.2-0.3,0.5-0.9,0.3c-0.2,0.6-0.4,1.2-0.4,2c0.4,0.4,0.8,0.7,1.2,1.1c1,0.8,2,1.6,2.5,2.9c0,0,0,0,0,0
	c0.2,0.9-0.1,1.3-0.3,1.7c-0.1,0.1-0.1,0.2-0.2,0.3c1,1.4,2,3.8,1.7,6.2c0,0.1-0.1,0.2-0.2,0.3c-2,1.7-3.4,4.1-4.1,7.3l-0.4-0.5
	l-0.4-0.5c-0.1,0.2-0.1,0.4-0.2,0.6l0.4,0.4l0.4,0.4c-0.2,1.1-0.4,2.3-0.6,3.5h1.2c0.2,0,0.4,0.2,0.5,0.4c0.2,0.9,1,1.5,1.8,2.2
	c0.9,0.7,1.8,1.5,1.9,2.6c0,0.2-0.1,0.4-0.1,0.6c0.6,0.5,1.4,0.8,2.3,1.1c1.1,0.4,2.2,0.8,3,1.6c0.1,0.1,0.1,0.2,0.1,0.3v1.4
	c0.7-0.2,1.3-0.1,1.7-0.1c0.3,0,0.7,0,1,0c0.1-0.2,0.2-0.5,0.2-0.7c0-0.2,0.1-0.5,0.2-0.7c-0.5-0.2-0.7-0.6-0.8-1
	c-0.2-0.4-0.3-0.7-0.8-0.9c-0.6-0.3-1.5-0.4-2.3-0.5c-1.2-0.2-2.3-0.3-2.9-1.1c-0.4-0.5-0.5-1.2-0.3-2.1c0-0.1,0.1-0.3,0.2-0.3
	c0.1-0.1,0.3-0.1,0.4-0.1c0.3,0.1,0.5,0.2,0.6,0.3c0,0,0.1,0.1,0.1,0.1c-0.3-1-0.8-1.7-1.3-2.5c-0.6-0.9-1.3-1.9-1.5-3.3
	c-0.1,0-0.2,0.1-0.3,0.2c-0.2,0.2-0.5,0.4-0.8,0.3c-0.2,0-0.4-0.2-0.6-0.4c0-0.1-0.1-0.2-0.1-0.3c0-0.6,0-1.2-0.1-1.8
	c-0.1-0.9-0.2-1.9,0.1-3.3c0-0.1,0.1-0.2,0.2-0.3c2-1.2,2.1-4.4,2.3-7.5l0-0.3c0-0.1,0-0.3,0-0.5c0-0.2,0-0.4,0-0.7
	c0-0.3,0.1-0.6,0.1-0.8c0-0.2,0.1-0.4,0.1-0.6c0-0.3,0.3-0.5,0.5-0.4c0.5,0,0.9,0,1.4-0.1c0.9-0.1,1.9-0.3,2.5,0.8
	c0,0.1,0,0.1,0.1,0.2c0.1,0.5,0,0.9-0.1,1.2c-0.1,0.3-0.1,0.6-0.1,0.7c2.2-0.5,4.6,0,5.2,1.7c0.1,0.1,0.2,0.3,0.3,0.4
	c0.4,0.1,0.8,0.2,1.2,0.3c-0.2-1-0.5-1.9-0.8-2.9L87.3,60c0,0-0.1,0-0.1,0c-0.2-0.1-0.5-0.2-0.7-0.6c-0.1-0.4-0.1-0.8,0-1.3
	c0-0.2,0.1-0.5,0-0.6c0-0.3,0.2-0.5,0.4-0.5c0.7-0.1,1-0.5,1.4-1.2c0.3-0.5,0.6-1.1,1.2-1.4c0,0,0,0,0,0c1-0.5,2.1-0.3,3.1-0.2
	c1,0.1,1.9,0.3,2.6-0.1c0.2-0.1,0.4-0.1,0.5,0c0.7,0.5,1.3,0.7,1.7,0.4C98.5,53.7,98.7,50.7,98.2,48.4z M76.9,73.8
	C76.9,73.8,76.9,73.8,76.9,73.8C76.9,73.8,76.9,73.8,76.9,73.8C76.9,73.8,76.9,73.8,76.9,73.8z M78,72.1c-0.1,0-0.2-0.1-0.2-0.1
	c0.1,0.1,0.2,0.1,0.4,0.2C78.1,72.1,78,72.1,78,72.1z M77.8,72.5c0,0-0.1,0-0.2,0c0.1,0,0.2,0.1,0.3,0.1
	C77.8,72.6,77.8,72.5,77.8,72.5z M77.6,73C77.6,73,77.6,73.1,77.6,73c0,0.1,0.1,0.1,0.2,0.2C77.7,73.1,77.6,73.1,77.6,73z"/>
<polygon class="st0" points="97,67.5 97.2,63.1 94,66 99.8,58.2 99.7,61.9 103.9,58 "/>
<path class="st0" d="M115,62.1c0,0.3,0,0.6,0,0.9L97.6,82.2l1.3-6l-10.2,6.6l17.6-18.2l-1,4.1L115,62.1z"/>
<g>
	<g>
		<defs>
			<ellipse id="SVGID_1_" cx="80" cy="60.2" rx="35.1" ry="34.8"/>
		</defs>
		<clipPath id="SVGID_00000111897365406327507060000000768450275494612106_">
			<use xlink:href="#SVGID_1_"  style="overflow:visible;"/>
		</clipPath>
		<g style="clip-path:url(#SVGID_00000111897365406327507060000000768450275494612106_);">
			<rect x="44.5" y="58.2" width="70.6" height="1"/>
			<rect x="44.5" y="59.7" width="70.6" height="1"/>
			<rect x="44.5" y="61.2" width="70.6" height="1"/>
			<rect x="44.5" y="62.7" width="70.6" height="1"/>
			<rect x="44.5" y="64.2" width="70.6" height="1"/>
			<rect x="44.5" y="65.7" width="70.6" height="1"/>
			<rect x="44.5" y="67.2" width="70.6" height="1"/>
			<rect x="44.5" y="68.7" width="70.6" height="1"/>
			<rect x="44.5" y="70.2" width="70.6" height="1"/>
			<rect x="44.5" y="71.8" width="70.6" height="1"/>
			<rect x="44.5" y="73.3" width="70.6" height="1"/>
			<rect x="44.5" y="74.8" width="70.6" height="1"/>
			<rect x="44.5" y="76.3" width="70.6" height="1"/>
			<rect x="44.5" y="77.8" width="70.6" height="1"/>
			<rect x="44.5" y="79.3" width="70.6" height="1"/>
			<rect x="44.5" y="80.8" width="70.6" height="1"/>
			<rect x="44.5" y="82.4" width="70.6" height="1"/>
			<rect x="44.5" y="83.9" width="70.6" height="1"/>
			<rect x="44.5" y="85.4" width="70.6" height="1"/>
			<rect x="44.5" y="86.9" width="70.6" height="1"/>
			<rect x="44.5" y="88.4" width="70.6" height="1"/>
			<rect x="44.5" y="89.9" width="70.6" height="1"/>
			<rect x="44.5" y="91.4" width="70.6" height="1"/>
			<rect x="44.5" y="92.9" width="70.6" height="1"/>
			<rect x="44.5" y="94.5" width="70.6" height="1"/>
		</g>
	</g>
</g>
<path class="st2" d="M129.3,75c0.1-0.1,0.1-0.2,0.1-0.3C129.4,74.8,129.4,74.9,129.3,75z M130.5,69.5c0.1-0.1,0.1-0.2,0.2-0.3
	C130.7,69.3,130.6,69.4,130.5,69.5z M129.7,69.7c0.2-3,1.8-6,2-8.2c-0.2,0.8-0.6,1.3-1.5,1.2c0.9-3.1,1.6-7.7,1.2-11.2
	c-0.3,1.3-0.3,2.9-1.5,3.2c1.2-2.9-0.3-7.7-0.2-9.2c-0.4,0.7-0.3,1.9-1.2,2c0-2.3-0.7-6.7-1-8.7c-0.2,0.6-0.2,1.4-0.8,1.5
	c-1-2.5-1-6.1-2.7-8c-0.2,0.3-0.2,0.9-0.8,1c-0.7-2.7-3.5-4.1-3.2-7c-0.4,0.6,0,1.9-0.8,2c-1-3.5-4.8-4.4-6-7.7
	c-0.2,0.7,0.8,1.4,0,1.8c-1.6-3.8-6-4.6-9-7c-0.3,1.7,2,2.1,1.2,3.5c-3-2.2-8.5-2-11-4.7c0.2,0.9,0.9,1.4,1.5,2
	c3.8,0.5,3.6,5,6.7,6.2c1.8-0.1,2.9,0.6,3.7,1.5c-1,1-2.4-0.7-3,0c2.9,1,5,3,7,5c-0.3,0-0.7,0-0.8,0.2c2.8,1.5,4.8,3.7,6.7,6
	c-1.2,1.1-2-1.2-2.5-0.8c1.3,2.3,4.8,2.4,5.2,5.5c-1.1,0.4-1.3-1.4-1.8-0.8c1.6,1.6,4,3.8,4,6.2c-1,0.1-0.7-1.2-1.5-1.2
	c1.4,1.4,2.8,4,2.5,6.2c-0.3,0-0.4-0.4-0.5,0c0.7,2.4,2.2,4.7,1.8,7.5c-0.8-0.2-0.7-1.1-1.2-1.5c0.6,2.7,2.7,4.8,1.2,8.2
	c0-0.6-0.5-0.9-0.8-1.2c-0.4,1.9,0.8,3.8-0.2,5.7c-0.9,0.2-0.6-2.1-1-1.5c0.3,2.5,1.3,5.1-0.2,7c-0.7,0.1-0.2-1-1-0.8
	c1.2,3.1-2.2,4.2-1,7.2c-0.6,0-0.8,0.4-1.2,0.5v3c-1.1,0-2.2,0.1-3,0.5c0.7-0.1,0.2,0.9,0.8,1c0.4-0.4,1.2-1,1.8-0.5
	c-0.2,0.8-1.2,0.8-1.2,1.8c2.6,0.6,2.8-0.3,4.5-2c0.7,0.8-0.2,3.2,0.5,4c0.1-0.4,0.6-0.2,1-0.2c0.2-1.2-0.3-2.7,0-3.2
	c1.3,1.8,3.3-1.7,2-3.2c1.7-2.2,4-5,4.9-7.4c-0.2,0.3-0.8,0.4-0.9,0c0.9-1.4,1.5-4.1,2.1-5.4C130.4,69.7,130.1,69.7,129.7,69.7z
	 M111.5,21.3c-1.6-1.2-2.6-2.9-4.7-3.5C108.7,17.7,110.9,19.3,111.5,21.3z M99.3,18.1c-0.1-0.4,0.2-0.5,0.5-0.5
	c1.3,2.2,3.9,2.9,5.7,4.5C102.7,22.4,100.8,19.8,99.3,18.1z M106,21.8c-1.5-2-4.9-2.1-6-4.5C102.5,18.3,106.5,17.8,106,21.8z
	 M108.3,25.6c1.5,0.6,3,1.2,3.5,2.7C109.7,28.3,109,26.9,108.3,25.6z M112.8,27.6c-2.2-0.7-3.2-2.7-6-2.7c0.8-0.3,1.2-1.1,2.5-1
	c-0.9-1.8-2.8-2.7-3-5.2c1.9-0.4,4.6,2.7,5.7,4.7c-0.3,0.6-1.6,0.1-2.2,0.2c1.1,0.3,2.3,0.5,3,1.2C112.9,26.1,112.4,26.8,112.8,27.6
	z M126,62.2c-0.7,0.6,0.4,1.5,0,2.5c-1.6,0-1.2-2.2-1.2-3.7c0.4,0.2,1,0.2,0.8,1c0.9-1-0.9-1.5-0.8-2.8c1.3,0.5,3.7,3.3,1.5,4.2
	C126.4,62.8,125.9,62.8,126,62.2z M127.2,57.2c-2.2,0.1-1.6-2.7-2.5-4C126.6,53.5,127.7,55.5,127.2,57.2z M129.7,55.5
	c0.3,1.9-1.3,3.9-1.5,6C125.6,60.2,128,56.2,129.7,55.5z M129.7,63.2c1.1,0.5-0.7,1.6-1,2.2c-0.3,1.5-0.8,3.1-1.5,3.5
	C126.6,66.6,127.8,64.4,129.7,63.2z M128.7,61.2c0.1-1.5,1.1-2.1,1-3.7C130.5,58,130.4,61.5,128.7,61.2z M129.2,53.5
	c-0.6-0.8,0.3-1.6,0-2.7C130.1,50.8,130.5,53.6,129.2,53.5z M127.2,43.3c0.8,1.3,1.4,3.2,0.2,4.5C126.9,46.6,126.8,44.6,127.2,43.3z
	 M128.7,49c1.2,0.8-0.3,3-0.2,4.2c-1.2,0.2-0.9-1.1-1.5-1.5C127.3,50.6,128.1,49.9,128.7,49z M126.2,47.5c-2.7-1-0.6-4,0.2-5.5
	C127.3,42.8,126.3,45.9,126.2,47.5z M126,40.5c-0.6-0.9-1-2.2-1-3.7C125.8,37.5,126.4,39.3,126,40.5z M123.7,35
	c1,1.4,0.8,3.8,1.2,5.7C122.4,40.6,122.9,36.7,123.7,35z M122.7,34c-1.1-0.5-1.2-2.1-1.8-3.2C122.3,31.2,122.7,32.5,122.7,34z
	 M120,30.1c1.3,1.1,1.2,3.6,2.2,5c-1.3,0.8-2.2-0.9-3-1.5C119.2,32.1,119.8,31.2,120,30.1z M118.5,28.8c-1.9-0.6-2.8-2.3-3.5-4.2
	C117.1,25.1,118.5,26.2,118.5,28.8z M114.2,24.3c0.8,1.7,2,3,2.7,4.7C114.2,29.5,113.6,26.5,114.2,24.3z M113.5,30
	c2,0.5,3.3,1.6,4,3.5C115.1,34.4,114.6,31.3,113.5,30z M114.2,29.6c2.2-1,4.8,0.9,3.7,3.2C117,31.4,115.4,30.7,114.2,29.6z
	 M117.7,36.5c0.5-1.1,1.3,0.5,1.8,1C118.7,38.7,118.3,37.1,117.7,36.5z M118.5,36c1-0.6,4.4,0.5,3.7,3.2
	C120.7,38.5,120.2,36.7,118.5,36z M124.5,44.5c-1.5-1-2.5-2.5-3.5-4C122.9,41,125.6,41.8,124.5,44.5z M121.7,44.3
	c0.3-1.2-0.6-1.2-0.5-2.2c1,0.7,2,1.3,2.2,2.8C122.7,44.8,122.3,44.5,121.7,44.3z M123.2,47.8c0.5,0.1,0.5,0.7,1,0.8
	c-0.3-0.7-1-1-1-2c1.6,0.5,2.6,1.6,2.5,3.7c-0.8-0.1-1-0.8-1.2-1.5c-0.6,0.5,0.6,1.4,0.5,2.2C123.6,50.7,122.7,49.4,123.2,47.8z
	 M124.2,53.8c0.7,1,1.3,2.2,1.5,3.7C123.7,57.7,123.8,55.3,124.2,53.8z M124,66.5c0.9,0.4,0.7,1.9,0.8,3.2c0.8-1.1-0.2-2.6-0.2-3.7
	c1.8,0.5,2.5,3.2,1.5,5C124.7,70.3,123.1,69.1,124,66.5z M123.5,72.2c1.9,0.2,1,3.3,1.2,5.2C122.5,77.5,123.8,74,123.5,72.2z
	 M125.5,77.7c-0.5,1.3-1.8,1.8-2.2,3.2C122.4,79.2,124,77.9,125.5,77.7z M119,84.2c-1.8-1.5,1.2-4.1,2-1.8
	C120.5,83.2,119.7,83.6,119,84.2z M121,80.2c-1.8-0.3-0.9-3.8,0.5-4C121.2,77.4,121.2,78.9,121,80.2z M122.2,79.9
	c-1.4,0-0.5-2.4-0.5-3.2C122.5,77.4,122.6,78.8,122.2,79.9z M122.7,72.7c1.1,0.3,0.2,2.6,0.5,3.7C121.6,76.2,122.4,73.7,122.7,72.7z
	 M124.5,83.7c-0.1,0.8-0.5,1.1-0.8,1.8c-0.6-0.3-0.7-1.1-0.8-2C123.6,83.4,124.2,83.4,124.5,83.7z M124,80.9c0.3-1.5,1.2-2.5,2.5-3
	C126.3,79.6,125.3,80.4,124,80.9z M127,75c0.1-1.4,1.2-1.8,1.5-3C129.3,73.3,128.1,74.7,127,75z M126.2,74.7c-1-2.6,1.1-3.5,2.7-4.2
	C128.8,71.6,127.2,73.5,126.2,74.7z M128.2,68.5c0.2-1.6,1.1-2.4,1.5-3.7C130.1,65.9,129.7,68.4,128.2,68.5z"/>
<path class="st2" d="M55.1,18.3c-0.3-0.7,1.2-0.9,0.5-1.2c-0.9,1.1-2,1.5-3.7,1.8c-2.6,0.4-4.5,3.2-5,2.2c-0.4,0.4-0.2,1.3-0.2,2
	c-1.6,0.8-2.9,2-4,3.2c0-0.4,0.1-0.9-0.2-1c-0.8,1.3-2,2.3-2,4.5c-1.9,0.8-2.6,2.9-3.7,4.5c-0.5-0.2,0.1-1.4-0.5-1.5
	c-0.5,2.9-1.9,4.9-2.5,7.7c-0.6,0.1-0.3-0.7-0.8-0.8c1,3-1.7,4.6-0.8,7.5c-0.6-0.2-0.8-0.9-1.2-1.2c1.2,2.7-1.7,6.3-0.5,9
	c-1.2,0-0.8-1.5-1.5-2c1.5,3.7-0.2,9.3,2.7,11.7c-0.2,0.1-0.5,0-0.5,0.2c1.7,0.7,2.5,3.5,1.8,5.7c-1.9-0.7-1.2-4.2-2-6
	c-1.5-0.2-2.1-1.2-2.7-2.2c-0.3,1.6,1.5,2.2,2,3.7c0.6,1.7,0.1,3.9,1,5c-1-0.3-1.7-2.2-2.2-2c0.1,2.4,3.5,2.8,2.2,5.7
	c-0.6,0.2-1.3-0.6-1.3-0.7c0,0,0,0.1,0.1,0.2c1.7,2.4,2.6,5.7,4.7,7.7c-0.2,0.5-0.8,0.7-0.8,1.5c0.7,0.6,0.8,1.7,1.8,2
	c0.2-0.5,0.8-0.6,1-1c0.3,0.5-0.3,3,0,3.5c1.3-0.4-0.1-3.5,0.8-4.2c1.4,0.1,0.5,2.5,1,3.5c1-0.2,1.6-0.3,2.2,0.2
	c-0.1-1.3-1.5-2.4-1-3.5c0.7,0.6,1.5,1.2,2.7,1.2c-0.2-0.7,0.4-0.6,0.2-1.2c-0.8-0.1-2.2,0.3-2.2-0.5c1.1-0.5,0.3-1.5,0.5-3
	c-0.2-0.3-1,0-1-0.5c0.2-2.8-0.7-4.6-1.8-6.2c0,0.6-0.1,1.2-0.5,1.5c-0.8-2.8,0.2-5.3-0.2-8c-0.2,0.4-0.7,1.6-1,1
	c0.2-2.1,0.9-4.5,0.2-6c-0.3,0.6,0.1,1.9-0.8,2c-1-3.5,1.5-6.1,1.5-8.5c-0.5,0.8-0.6,1.9-1.8,2c0.8-3.1,2-7,3-9
	c-0.5,0.4-0.4,1.3-1.2,1.2c0-3.7,1.7-5.6,3.5-7.5c-0.4-0.2-1,0.7-1.2,0c1.6-1.4,2-4,3.7-5.2c-0.2-0.1-0.5,0-0.5-0.2
	c1.5-2,3.5-3.7,5.2-5.5c-1-0.1-0.9,0.9-2,0.8c1.5-2.1,2.5-4.6,6-4.7c0.4-1-1.1-0.1-1-0.8c1.7-1.2,3.6-2.1,5.2-3.2
	c-0.3,0-0.7,0-0.8-0.2c3.2-1.9,6.2-6.7,9-7.5C61.2,16.6,58.8,18,55.1,18.3z M53.1,19.6c-0.8,0.5-0.8,1.7-2.2,1.5
	C51.2,20.1,51.9,19.6,53.1,19.6z M50.9,20.1c-0.3,0.8-1,1.2-2,1.2C49,20.4,49.8,20,50.9,20.1z M51.9,21.6c-0.5,1.4-1.7,2-3.5,2
	C47.9,22.1,50.2,20.8,51.9,21.6z M52.6,23.8c-0.9,1.1-3.1,0.9-4.5,1.5C48.3,23.5,50.6,23.8,52.6,23.8z M45.9,24.6
	c0.9,0,0.5,2.5-1,2.2C45.2,26,45.6,25.3,45.9,24.6z M45.1,27.6c-0.2,0.8-1,1-1.2,1.8C42.7,28.7,43.9,27.2,45.1,27.6z M43.1,26.3
	c0.5-0.2,1.1-0.4,1.2-1c0.9,0.9-1,1.2-0.8,2.2C43.1,27.5,43.1,26.9,43.1,26.3z M40.9,29.1c1,0,0.3,1.7,0.5,2.5
	c-0.5,0.1-0.7,0.6-1.5,0.5C40.1,30.9,40.7,30.2,40.9,29.1z M41.4,32.3c-0.3,1.1-0.6,2.2-1.2,3c-0.8-0.2-0.7,0.4-1.5,0.2
	C38.5,33.5,39.9,31.8,41.4,32.3z M39.4,31.5c0.1,1-0.5,1.2-0.8,1.8C38.1,32.8,38.6,31.4,39.4,31.5z M36.4,36c1.3,1.3,1,5.3-1.2,5.2
	C35.4,39.3,36.1,37.9,36.4,36z M39.4,39.8c0.8,0.6-0.9,1.2-1.5,1.8c-0.9,0.9-1.6,2.6-2.7,2.7C34.9,41.1,37.2,40.5,39.4,39.8z
	 M35.4,37.3c0.5,0.5,0.2,2.3-0.8,2.2C34.5,38.4,35.2,38,35.4,37.3z M33.9,42.5c1,1.6,0.6,3.6,0,5.2C32.1,46.8,34.1,44.2,33.9,42.5z
	 M32.9,43.5c0.3,0.8,0.5,2.2-0.5,2.5C32.3,44.9,32.6,44.2,32.9,43.5z M31.7,48.8c0.6,0.3,0.1,1.6,0.2,2.2c0.4-0.5,0.5-1.3,0.5-2.2
	c2.1,1.2,1.8,5.7-0.2,6.7c-1-1,0-2.5-0.2-4.2c-0.5,0.4-0.1,1.7-0.8,2C29.8,52.2,31.3,49.8,31.7,48.8z M31.2,61.7
	c-0.5-1.6-0.1-4-0.7-5.5c1.7-0.4,2.5,2.4,2.7,4.2C32.6,61,32.3,61.7,31.2,61.7z M35.2,58.7c-0.7,2.5-1.1,5.2-1.5,8
	C31.1,64.9,33,59.7,35.2,58.7z M34.4,72.7c-2.5-0.9-0.2-3.9,0-5.7C35,68.5,35.1,71.2,34.4,72.7z M34.7,74.2V77
	c-1.8-0.6-1.8-2.8-2.5-4.5C33.2,72.9,33.9,73.6,34.7,74.2z M35.7,84.4c-0.6-0.3-1.3-0.6-1-1.8C35.9,82.6,36,83.7,35.7,84.4z
	 M40.4,80.9c0,0.7,0.1,1.4-0.2,1.8h-1C38.8,82.2,39.2,80.7,40.4,80.9z M37.9,76.7c1.1,0.6,0.4,3.5,0,4.2
	C36.4,80.1,37.7,78,37.9,76.7z M32.4,77.7c2.2-0.3,4.8,1.1,4.7,4C35.6,81.3,33.7,79.2,32.4,77.7z M36.7,78.7c-2.4-0.5-1.4-4.8-1-6.7
	C36.5,73.6,37.2,76.4,36.7,78.7z M35.2,69.2c-0.2-1.2,0.2-1.9,0.2-3C36.4,66.4,36,69.2,35.2,69.2z M34.9,56.7c0.3-1,0.3-2.3,1-3
	C36.7,54.3,35.8,56.3,34.9,56.7z M33.7,58.7c-2-2.5,0.4-6.5,2.7-7C35.2,53.8,34.6,56.4,33.7,58.7z M35.2,50.8
	c-3-2.4,0.8-6.6,3.5-7.2C38,45.4,35.7,47.9,35.2,50.8z M38.2,42.8c0-1.8,1.7-1.8,2.5-2.7C40.7,40.9,39.8,42.9,38.2,42.8z M41.4,36.8
	c-1,0.8-2,2-3,2.2c-0.7-3.8,2.7-3.7,5-4.5C44,35.2,42.2,36.1,41.4,36.8z M42.6,32.8c-0.5-2.3,0.9-2.7,1.8-3.7
	C45.4,30.7,44,32.2,42.6,32.8z M44.4,32.3c0.5-1.3,1.7-1.8,2.5-2.7C47.8,30.4,45.8,32.2,44.4,32.3z M45.9,29.8c-1-1,0.8-2.4,1.8-1.5
	C47.4,29.2,46.2,29,45.9,29.8z M47.6,27.1c0.6-2,3.1-2.2,5.5-2.5C51.7,25.5,50.1,28.7,47.6,27.1z M55.4,22.8c0.7-1.1,2.2-1.4,3-2.5
	C58.7,21.5,56.8,22.6,55.4,22.8z M53.1,22.6c-1-4,3.9-4.2,7.5-4.5C58.9,20.3,56.1,21.5,53.1,22.6z"/>
<g>
	<g>
		<path class="st2" d="M76.9,73.8C76.9,73.8,76.9,73.8,76.9,73.8C76.9,73.8,76.9,73.8,76.9,73.8C76.9,73.8,76.9,73.8,76.9,73.8z"/>
		<path class="st2" d="M97.5,54.4c-0.4,0.3-0.9,0.1-1.7-0.4c-0.1-0.1-0.3-0.1-0.5,0c-0.7,0.4-1.6,0.2-2.6,0.1
			c-1.1-0.2-2.2-0.3-3.1,0.2c0,0,0,0,0,0c-0.6,0.3-0.9,0.9-1.2,1.4c-0.4,0.7-0.7,1.2-1.4,1.2c-0.3,0-0.5,0.3-0.4,0.5
			c0,0.1,0,0.4,0,0.6c-0.1,0.5-0.1,0.9,0,1.3c0.1,0.4,0.5,0.5,0.7,0.6c0,0,0.1,0,0.1,0l0.1,0.3c0.3,1,0.6,1.9,0.8,2.9
			c-0.3-0.1-0.7-0.2-1.2-0.3c-0.1-0.1-0.2-0.3-0.3-0.4c-0.6-1.7-3-2.2-5.2-1.7c0-0.2,0-0.4,0.1-0.7c0.1-0.4,0.2-0.8,0.1-1.2
			c0-0.1,0-0.1-0.1-0.2c-0.6-1.1-1.6-0.9-2.5-0.8c-0.4,0.1-0.9,0.1-1.4,0.1c-0.3,0-0.5,0.2-0.5,0.4c0,0.2-0.1,0.4-0.1,0.6
			c-0.1,0.3-0.1,0.5-0.1,0.8c0,0.2,0,0.4,0,0.7c0,0.2,0,0.3,0,0.5l0,0.3c-0.2,3.1-0.3,6.4-2.3,7.5c-0.1,0.1-0.2,0.2-0.2,0.3
			c-0.3,1.3-0.2,2.4-0.1,3.3c0.1,0.6,0.1,1.2,0.1,1.8c0,0.1,0,0.2,0.1,0.3c0.2,0.3,0.4,0.4,0.6,0.4c0.4,0.1,0.6-0.2,0.8-0.3
			c0.2-0.1,0.2-0.2,0.3-0.2c0.2,1.4,0.9,2.3,1.5,3.3c0.5,0.8,1,1.5,1.3,2.5c0,0-0.1,0-0.1-0.1c-0.2-0.1-0.3-0.2-0.6-0.3
			c-0.1,0-0.3,0-0.4,0.1c-0.1,0.1-0.2,0.2-0.2,0.3c-0.2,0.9,0,1.6,0.3,2.1c0.6,0.8,1.7,1,2.9,1.1c0.8,0.1,1.6,0.2,2.3,0.5
			c0.5,0.2,0.6,0.5,0.8,0.9c0.2,0.3,0.4,0.8,0.8,1c-0.1,0.2-0.1,0.5-0.2,0.7c-0.1,0.3-0.1,0.6-0.2,0.7c-0.4,0-0.7,0-1,0
			c-0.5,0-1-0.1-1.7,0.1v-1.4c0-0.1,0-0.2-0.1-0.3c-0.7-0.9-1.9-1.3-3-1.6c-0.9-0.3-1.8-0.6-2.3-1.1c0.1-0.1,0.2-0.3,0.1-0.6
			c-0.2-1.1-1.1-1.8-1.9-2.6c-0.8-0.6-1.6-1.3-1.8-2.2c-0.1-0.2-0.3-0.4-0.5-0.4h-1.2c0.1-1.3,0.3-2.4,0.6-3.5l-0.4-0.4
			c0-0.2,0.1-0.3,0.1-0.4l0.4,0.5C72.6,70,74,67.6,76,66c0.1-0.1,0.2-0.2,0.2-0.3c0.2-2.3-0.7-4.7-1.7-6.2c0-0.1,0.1-0.2,0.2-0.3
			c0.2-0.3,0.5-0.8,0.3-1.7c0,0,0,0,0,0c-0.5-1.3-1.5-2.1-2.5-2.9c-0.5-0.4-0.9-0.7-1.2-1.1c0-0.8,0.2-1.4,0.4-2
			c0.5,0.2,0.8-0.1,0.9-0.3c0.3-0.6,0.3-1.5,0.4-2.4c0-0.4,0-0.7,0.1-1c0-0.1,0-0.1,0-0.2c-0.2-0.5-0.4-1-0.6-1.5
			c0.1-0.1,0.2-0.4,0-0.6c-0.1-0.2-0.3-0.3-0.5-0.4c0,0,0,0-0.1,0c0,0,0,0,0,0c0-0.2,0.1-0.4-0.1-0.7c-0.2-0.3-0.5-0.5-0.7-0.7
			c-0.2-0.1-0.3-0.2-0.4-0.4c-0.2-0.2-0.4-0.4-0.6-0.7c-0.3-0.3-0.5-0.5-0.7-0.8c0-0.1,0-0.3,0-0.4c0-0.4,0.1-0.7,0-0.9
			c-0.2-0.4-0.6-0.5-0.9-0.6c-0.1,0-0.2-0.1-0.2-0.1c0,0,0-0.1,0-0.2c0,0,0-0.1,0-0.2c0.1,0,0.3,0,0.6,0c0.1,0,0.3,0,0.4-0.1
			c0.1-0.1,0.2-0.2,0.2-0.3c0-0.2,0-0.3,0-0.5c0.1-1.4,0.2-2.6,0.9-3.1c0.5-0.4,1.2-0.5,2.3-0.4c0,0,0.1,0,0.1,0
			c0.7-0.1,1.1-0.6,1.4-0.9c0.1-0.1,0.2-0.2,0.3-0.3c0.1,0,0.1,0,0.3,0.1c0.1,0.1,0.3,0.3,0.6,0.4c0.2,0.1,0.5-0.1,0.6-0.3
			c0.3-0.6,0.8-0.9,1.2-1c0.7-0.2,1.6-0.1,2.3,0.3c0,0.2-0.1,0.3-0.2,0.5c-0.1,0.1-0.2,0.3-0.3,0.6c0,0.1,0,0.2,0,0.3
			c0.1,0.4,0.3,0.7,0.5,0.9c0.1,0.1,0.2,0.3,0.3,0.4c0.1,0.2,0.2,0.3,0.4,0.3c0.7,0,1.1-0.3,1.4-0.5c0.2-0.2,0.4-0.3,0.7-0.3
			c0.2,1.1,0.2,2.4-0.1,3.9c0,0,0,0,0,0c-0.1,0.1-0.3,0.2-0.4,0.5c-0.1,0.2,0.1,0.5,0.1,0.6c-0.1,0.4-0.2,0.9-0.3,1.3
			c-0.1,0.2-0.1,0.4-0.2,0.6c0,0.1,0,0.3,0.1,0.4c0.1,0.1,0.2,0.2,0.4,0.2c0,0,0.1,0.1,0.2,0.1c0.2,0.1,0.5,0.3,0.8,0.2
			c0.5-0.2,0.6-0.4,0.8-0.7c0-0.1,0.1-0.2,0.2-0.2c0.3-0.4,0.8-0.8,1.2-1.2c0.2-0.2,0.4-0.4,0.6-0.5c0.4,0.2,0.8,0.4,1.1,0.5
			c0.4,0.2,0.8,0.4,1.1,0.4c0,0,0.1,0.1,0.1,0.1c0.2,0.1,0.6,0.4,1,0.2c0.5-0.3,0.9-1.2,1.6-2.5c0.2,0.1,0.4,0.1,0.6,0.2
			c0.4,0.2,0.9,0.4,1.5,0.4c0.3,1.7,1.5,2.4,2.7,3c-0.2,2.4,0.2,4,1.2,4.9c0.5,0.5,1.2,0.7,2,0.6C98.7,50.7,98.5,53.7,97.5,54.4z"/>
		<path class="st0" d="M76.9,73.8C76.9,73.8,76.9,73.8,76.9,73.8C76.9,73.8,76.9,73.8,76.9,73.8C76.9,73.8,76.9,73.8,76.9,73.8z
			 M71.5,72.7l-0.4-0.5c-0.1,0.2-0.1,0.4-0.2,0.6l0.4,0.4l0.4,0.4c0-0.1,0-0.2,0.1-0.3L71.5,72.7z M87.1,63.9
			c-0.1-0.1-0.2-0.3-0.3-0.4c-0.2-0.1-0.4-0.1-0.6-0.1c0,0,0.1,0.1,0.1,0.1c0.1,0.1,0.2,0.2,0.4,0.3C86.8,63.9,87,63.9,87.1,63.9
			C87.1,63.9,87.1,63.9,87.1,63.9z"/>
	</g>
	<g>
		<path d="M77.6,73c0,0,0.1,0.1,0.2,0.2C77.7,73.2,77.6,73.1,77.6,73C77.6,73.1,77.6,73,77.6,73z"/>
		<path d="M77.9,72.6c-0.1,0-0.2-0.1-0.3-0.1c0.1,0,0.1,0,0.2,0C77.8,72.5,77.8,72.6,77.9,72.6z"/>
		<path class="st0" d="M76.9,73.8C76.9,73.8,76.9,73.8,76.9,73.8C76.9,73.8,76.9,73.8,76.9,73.8C76.9,73.8,76.9,73.8,76.9,73.8z
			 M77.8,72.5c0,0-0.1,0-0.2,0c0.1,0,0.2,0.1,0.3,0.1C77.8,72.6,77.8,72.5,77.8,72.5z M78,72.1c-0.1,0-0.2-0.1-0.2-0.1
			c0.1,0.1,0.2,0.1,0.4,0.2C78.1,72.1,78,72.1,78,72.1z"/>
	</g>
	<g>
		<path d="M78.1,72.2c-0.1,0-0.3-0.1-0.4-0.2c0.1,0,0.2,0,0.2,0.1C78,72.1,78.1,72.1,78.1,72.2z"/>
		<path class="st0" d="M77.8,72.5c0,0-0.1,0-0.2,0c0.1,0,0.2,0.1,0.3,0.1C77.8,72.6,77.8,72.5,77.8,72.5z M78,72.1
			c-0.1,0-0.2-0.1-0.2-0.1c0.1,0.1,0.2,0.1,0.4,0.2C78.1,72.1,78,72.1,78,72.1z"/>
		<path class="st0" d="M99.1,47.7c-0.1-0.2-0.3-0.4-0.6-0.3c-0.7,0.1-1.2,0-1.6-0.3c-0.5-0.5-1-1.6-0.8-4.4c0-0.2-0.1-0.4-0.2-0.5
			l-0.2-0.1c-1.1-0.7-2.1-1.2-2.2-2.7c0-0.1-0.1-0.2-0.2-0.3c-0.1-0.1-0.2-0.1-0.4-0.1c-0.6,0-1-0.1-1.4-0.3
			c-0.3-0.2-0.7-0.3-1.2-0.4c-0.2,0-0.4,0.1-0.5,0.3l-0.1,0.3c-0.4,0.8-0.9,1.7-1.2,2.1l0,0c-0.2-0.1-0.3-0.3-0.6-0.3
			c-0.2,0-0.5-0.1-0.8-0.3c-0.4-0.2-0.8-0.4-1.5-0.7c-0.2-0.1-0.4,0-0.5,0.1c-0.2,0.2-0.5,0.5-0.8,0.7c-0.5,0.4-0.9,0.8-1.3,1.3
			c-0.1,0.1-0.2,0.3-0.3,0.4c-0.1,0.1-0.1,0.1-0.1,0.2c0,0-0.1,0-0.1-0.1c0,0-0.1-0.1-0.1-0.1l0.1-0.2c0.1-0.5,0.2-1,0.3-1.5
			c0-0.2,0-0.3-0.1-0.5c0.1-0.1,0.2-0.2,0.2-0.4c0.4-1.9,0.4-3.4,0.1-4.8c0-0.2-0.2-0.3-0.4-0.4c-1-0.2-1.5,0.2-1.8,0.4
			c-0.2,0.1-0.3,0.2-0.5,0.3C80.1,35.1,80,35,80,34.9c-0.1-0.2-0.2-0.3-0.3-0.5c0-0.1,0.1-0.1,0.1-0.2c0.2-0.3,0.4-0.7,0.3-1.4
			c0-0.1-0.1-0.2-0.2-0.3c-1-0.7-2.2-0.9-3.3-0.6c-0.7,0.2-1.2,0.5-1.6,1c-0.2-0.2-0.6-0.4-1.2-0.3c-0.1,0-0.1,0-0.2,0.1
			c-0.2,0.2-0.4,0.4-0.5,0.6c-0.2,0.3-0.4,0.5-0.7,0.6c-1.3-0.1-2.3,0.1-3,0.6c-1,0.8-1.1,2.2-1.2,3.8v0c-0.4,0-0.8,0.1-1.1,0.4
			c-0.2,0.1-0.3,0.4-0.2,0.6c0.1,0.1,0.1,0.2,0.1,0.4c0,0.2,0.1,0.5,0.4,0.8c0.1,0.1,0.3,0.2,0.5,0.2c0.1,0,0.2,0.1,0.3,0.1
			c0,0.1,0,0.2,0,0.3c-0.1,0.5-0.1,0.8,0.1,1c0.2,0.4,0.6,0.7,0.9,1c0.2,0.2,0.4,0.4,0.5,0.6c0.2,0.3,0.4,0.4,0.7,0.6
			c0.2,0.1,0.3,0.2,0.4,0.3c0,0,0,0,0,0.1c0,0.2-0.1,0.4,0.1,0.7c0.1,0.1,0.2,0.2,0.4,0.3c0,0.1,0,0.3,0,0.4c0.3,0.5,0.5,1,0.6,1.5
			c0,0.3,0,0.6-0.1,1c0,0.6-0.1,1.3-0.2,1.7c-0.6-0.2-0.8,0.1-0.9,0.3c-0.3,0.7-0.6,1.7-0.6,2.9c0,0.1,0,0.2,0.1,0.3
			c0.5,0.5,1,0.9,1.5,1.3c0.9,0.7,1.7,1.4,2.1,2.5c0.1,0.5,0,0.6-0.2,0.9c-0.1,0.2-0.3,0.5-0.4,0.9c0,0.1,0,0.2,0.1,0.3
			c0.9,1.3,1.8,3.5,1.7,5.4c-1.9,1.6-3.2,3.9-4.1,6.9l0.4,0.5l0.4,0.5C72.6,70,74,67.6,76,66c0.1-0.1,0.2-0.2,0.2-0.3
			c0.2-2.3-0.7-4.7-1.7-6.2c0-0.1,0.1-0.2,0.2-0.3c0.2-0.3,0.5-0.8,0.3-1.7c0,0,0,0,0,0c-0.5-1.3-1.5-2.1-2.5-2.9
			c-0.5-0.4-0.9-0.7-1.2-1.1c0-0.8,0.2-1.4,0.4-2c0.5,0.2,0.8-0.1,0.9-0.3c0.3-0.6,0.3-1.5,0.4-2.4c0-0.4,0-0.7,0.1-1
			c0-0.1,0-0.1,0-0.2c-0.2-0.5-0.4-1-0.6-1.5c0.1-0.1,0.2-0.4,0-0.6c-0.1-0.2-0.3-0.3-0.5-0.4c0,0,0,0-0.1,0c0,0,0,0,0,0
			c0-0.2,0.1-0.4-0.1-0.7c-0.2-0.3-0.5-0.5-0.7-0.7c-0.2-0.1-0.3-0.2-0.4-0.4c-0.2-0.2-0.4-0.4-0.6-0.7c-0.3-0.3-0.5-0.5-0.7-0.8
			c0-0.1,0-0.3,0-0.4c0-0.4,0.1-0.7,0-0.9c-0.2-0.4-0.6-0.5-0.9-0.6c-0.1,0-0.2-0.1-0.2-0.1c0,0,0-0.1,0-0.2c0,0,0-0.1,0-0.2
			c0.1,0,0.3,0,0.6,0c0.1,0,0.3,0,0.4-0.1c0.1-0.1,0.2-0.2,0.2-0.3c0-0.2,0-0.3,0-0.5c0.1-1.4,0.2-2.6,0.9-3.1
			c0.5-0.4,1.2-0.5,2.3-0.4c0,0,0.1,0,0.1,0c0.7-0.1,1.1-0.6,1.4-0.9c0.1-0.1,0.2-0.2,0.3-0.3c0.1,0,0.1,0,0.3,0.1
			c0.1,0.1,0.3,0.3,0.6,0.4c0.2,0.1,0.5-0.1,0.6-0.3c0.3-0.6,0.8-0.9,1.2-1c0.7-0.2,1.6-0.1,2.3,0.3c0,0.2-0.1,0.3-0.2,0.5
			c-0.1,0.1-0.2,0.3-0.3,0.6c0,0.1,0,0.2,0,0.3c0.1,0.4,0.3,0.7,0.5,0.9c0.1,0.1,0.2,0.3,0.3,0.4c0.1,0.2,0.2,0.3,0.4,0.3
			c0.7,0,1.1-0.3,1.4-0.5c0.2-0.2,0.4-0.3,0.7-0.3c0.2,1.1,0.2,2.4-0.1,3.9c0,0,0,0,0,0c-0.1,0.1-0.3,0.2-0.4,0.5
			c-0.1,0.2,0.1,0.5,0.1,0.6c-0.1,0.4-0.2,0.9-0.3,1.3c-0.1,0.2-0.1,0.4-0.2,0.6c0,0.1,0,0.3,0.1,0.4c0.1,0.1,0.2,0.2,0.4,0.2
			c0,0,0.1,0.1,0.2,0.1c0.2,0.1,0.5,0.3,0.8,0.2c0.5-0.2,0.6-0.4,0.8-0.7c0-0.1,0.1-0.2,0.2-0.2c0.3-0.4,0.8-0.8,1.2-1.2
			c0.2-0.2,0.4-0.4,0.6-0.5c0.4,0.2,0.8,0.4,1.1,0.5c0.4,0.2,0.8,0.4,1.1,0.4c0,0,0.1,0.1,0.1,0.1c0.2,0.1,0.6,0.4,1,0.2
			c0.5-0.3,0.9-1.2,1.6-2.5c0.2,0.1,0.4,0.1,0.6,0.2c0.4,0.2,0.9,0.4,1.5,0.4c0.3,1.7,1.5,2.4,2.7,3c-0.2,2.4,0.2,4,1.2,4.9
			c0.5,0.5,1.2,0.7,2,0.6c0.5,2.2,0.3,5.3-0.7,6c-0.4,0.3-0.9,0.1-1.7-0.4c-0.1-0.1-0.3-0.1-0.5,0c-0.7,0.4-1.6,0.2-2.6,0.1
			c-1.1-0.2-2.2-0.3-3.1,0.2c0,0,0,0,0,0c-0.6,0.3-0.9,0.9-1.2,1.4c-0.4,0.7-0.7,1.2-1.4,1.2c-0.3,0-0.5,0.3-0.4,0.5
			c0,0.1,0,0.4,0,0.6c-0.1,0.5-0.1,0.9,0,1.3c0.1,0.4,0.5,0.5,0.7,0.6c0,0,0.1,0,0.1,0l0.1,0.3c0.3,1,0.6,1.9,0.8,2.9
			c-0.3-0.1-0.7-0.2-1.2-0.3c-0.1-0.1-0.2-0.3-0.3-0.4c-0.6-1.7-3-2.2-5.2-1.7c0-0.2,0-0.4,0.1-0.7c0.1-0.4,0.2-0.8,0.1-1.2
			c0-0.1,0-0.1-0.1-0.2c-0.6-1.1-1.6-0.9-2.5-0.8c-0.4,0.1-0.9,0.1-1.4,0.1c-0.3,0-0.5,0.2-0.5,0.4c0,0.2-0.1,0.4-0.1,0.6
			c-0.1,0.3-0.1,0.5-0.1,0.8c0,0.2,0,0.4,0,0.7c0,0.2,0,0.3,0,0.5l0,0.3c-0.2,3.1-0.3,6.4-2.3,7.5c-0.1,0.1-0.2,0.2-0.2,0.3
			c-0.3,1.3-0.2,2.4-0.1,3.3c0.1,0.6,0.1,1.2,0.1,1.8c0,0.1,0,0.2,0.1,0.3c0.2,0.3,0.4,0.4,0.6,0.4c0.4,0.1,0.6-0.2,0.8-0.3
			c0.2-0.1,0.2-0.2,0.3-0.2c0.2,1.4,0.9,2.3,1.5,3.3c0.5,0.8,1,1.5,1.3,2.5c0,0-0.1,0-0.1-0.1c-0.2-0.1-0.3-0.2-0.6-0.3
			c-0.1,0-0.3,0-0.4,0.1c-0.1,0.1-0.2,0.2-0.2,0.3c-0.2,0.9,0,1.6,0.3,2.1c0.6,0.8,1.7,1,2.9,1.1c0.8,0.1,1.6,0.2,2.3,0.5
			c0.5,0.2,0.6,0.5,0.8,0.9c0.2,0.3,0.4,0.8,0.8,1c-0.1,0.2-0.1,0.5-0.2,0.7c-0.1,0.3-0.1,0.6-0.2,0.7c-0.4,0-0.7,0-1,0
			c-0.5,0-1-0.1-1.7,0.1v-1.4c0-0.1,0-0.2-0.1-0.3c-0.7-0.9-1.9-1.3-3-1.6c-0.9-0.3-1.8-0.6-2.3-1.1c0.1-0.1,0.2-0.3,0.1-0.6
			c-0.2-1.1-1.1-1.8-1.9-2.6c-0.8-0.6-1.6-1.3-1.8-2.2c-0.1-0.2-0.3-0.4-0.5-0.4h-1.2c0.1-1.3,0.3-2.4,0.6-3.5l-0.4-0.4l-0.4-0.4
			c-0.4,1.4-0.6,3-0.8,4.8c0,0.1,0,0.3,0.1,0.4c0.1,0.1,0.2,0.2,0.4,0.2H72c0.1,0.3,0.3,0.6,0.5,0.9c-0.2,0-0.3,0-0.3,0
			c0-0.1,0-0.1-0.1-0.2c-0.2-0.3-0.6-0.4-1.1-0.4c-0.7,0-0.8,1.1-0.8,1.2c0,0.4,0.1,0.9,0.4,1.1c0.2,0.1,0.3,0.2,0.5,0.2
			c0.2,0,0.4-0.1,0.5-0.1c0.1,0,0.2-0.1,0.3-0.3c0,0.1,0.1,0.1,0.2,0.2c0.1,0,0.5,0.2,1,0.2c0.2,0,0.5,0,0.7-0.1
			c0.1-0.1,0.2-0.2,0.3-0.3c0.7,0.6,1.4,1.2,1.5,1.8c0,0,0,0,0,0c-0.1,0.1-0.2,0.3-0.2,0.5c0,0.1,0,0.2,0.1,0.3
			c0.7,0.9,1.9,1.3,3,1.7c0.9,0.3,1.8,0.6,2.4,1.2v1.8c0,0.2,0.1,0.3,0.2,0.4c0.1,0.1,0.2,0.1,0.3,0.1c0,0,0.1,0,0.1,0
			c0.9-0.3,1.4-0.3,2-0.2c0.4,0,0.9,0.1,1.4,0c0.1,0,0.2-0.1,0.2-0.1c0.4-0.3,0.5-0.9,0.6-1.4c0.1-0.3,0.2-0.7,0.3-0.8
			c0.2-0.1,0.3-0.4,0.2-0.6c-0.1-0.2-0.3-0.4-0.5-0.3c-0.5,0-0.5-0.1-0.8-0.6c-0.2-0.4-0.5-1-1.2-1.4c-0.8-0.4-1.7-0.5-2.6-0.6
			c-1-0.1-1.9-0.2-2.2-0.7c-0.1-0.2-0.2-0.4-0.2-0.6c0.3,0.1,0.6,0.3,1.1,0.2c0.3,0,0.5-0.3,0.4-0.5c-0.2-1.5-0.9-2.6-1.6-3.6
			c-0.6-0.8-1.1-1.6-1.4-2.7h0c0.1,0,0.2,0.1,0.2,0.1c0,0,0,0,0.1,0l1-0.2c0.2,0,0.3-0.2,0.4-0.3c0.1-0.2,0-0.3-0.1-0.5
			c-0.2-0.3-0.4-0.5-0.5-0.6c0.3-0.1,0.5-0.4,0.6-0.6c0-0.1,0-0.3,0-0.4l-0.4-0.7c0-0.1-0.1-0.2-0.2-0.2c-0.1,0-0.5-0.2-0.9-0.1
			c-0.2,0.1-0.3,0.2-0.4,0.4c-0.1,0.3-0.1,0.8,0,1.1c-0.1,0-0.3,0.1-0.3,0.2c-0.1,0.1-0.2,0.2-0.2,0.3c-0.1,0.2-0.1,0.5-0.1,0.7
			c-0.4,0-0.7,0.1-0.9,0.3c0-0.5,0-1-0.1-1.4c-0.1-0.8-0.2-1.7,0-2.8c2.2-1.5,2.4-4.9,2.6-8.2l0-0.3c0-0.2,0-0.4,0-0.6
			c0-0.2,0-0.3,0-0.5c0-0.2,0.1-0.5,0.1-0.7c0-0.1,0-0.2,0-0.2c0.4,0,0.8,0,1.1-0.1c0.9-0.1,1.2-0.1,1.5,0.2c0,0.2-0.1,0.5-0.1,0.8
			c-0.1,0.6-0.3,1.2,0.2,1.9c0.1,0.1,0.3,0.2,0.5,0.1c1.8-0.5,4-0.2,4.3,1.1c0,0.1,0.1,0.1,0.1,0.2c0.1,0.1,0.2,0.3,0.3,0.4
			c0.2-0.1,0.4,0,0.6,0.1c0.1,0.1,0.2,0.2,0.3,0.4c0,0,0,0,0,0c0.6,0.1,1.1,0.3,1.5,0.6c0.2,0.1,0.4,0.1,0.5,0
			c0.2-0.1,0.3-0.3,0.2-0.5c-0.2-1.6-0.6-2.7-1-4l-0.1-0.3c-0.1-0.4-0.4-0.5-0.6-0.6c-0.1,0-0.1-0.1-0.2-0.1c0-0.2,0-0.5,0-0.8
			c0-0.1,0-0.3,0-0.4c0.9-0.3,1.3-1,1.7-1.7c0.2-0.4,0.5-0.8,0.8-1.1c0.7-0.3,1.6-0.2,2.5-0.1c1,0.1,2,0.3,2.9-0.1
			c1.2,0.8,2.1,0.6,2.6,0.3C99.8,54.1,99.7,50.1,99.1,47.7z M71.7,79.2c0,0,0,0.3-0.1,0.5c-0.1,0.2-0.2,0.7-0.2,0.7s-0.3,0.1-0.5,0
			c-0.1-0.1-0.3-0.4-0.2-0.7c0-0.2,0.2-0.8,0.3-0.8S71.9,78.9,71.7,79.2z M72.2,80.2c0,0,0-0.3,0.1-0.4c0-0.1,0-0.5,0.3-0.3
			c0.3,0.2,1,0.8,1,0.8C73,80.5,72.2,80.2,72.2,80.2z M77.7,71.2c0.1-0.3,0.6-0.1,0.6-0.1l0.4,0.7c0,0-0.1,0.4-0.4,0.3
			c-0.1,0-0.1,0-0.2,0c0,0,0,0,0,0c-0.1,0-0.3-0.1-0.4-0.2c0,0-0.1,0-0.1-0.1C77.6,71.8,77.6,71.5,77.7,71.2z M77.2,72.7
			c0,0,0.2-0.2,0.4-0.2c0.1,0,0.1,0,0.2,0c0,0,0.1,0,0.1,0.1c0.2,0.3,0.8,1,0.8,1l-1,0.2c0,0-0.5-0.3-0.6-0.5S77.2,72.7,77.2,72.7z
			 M76.9,73.8C76.9,73.8,76.9,73.8,76.9,73.8C76.9,73.8,76.9,73.8,76.9,73.8C76.9,73.8,76.9,73.8,76.9,73.8z"/>
	</g>
	<g>
		<path d="M88.3,65.2c-0.2-0.3-0.7-0.2-0.8-0.2s-0.1,0.6-0.1,0.6s0.2,0.3,0.3,0.3s0.2,0.4,0.4,0.3c0.1-0.1,0.3-0.4,0.3-0.5
			C88.5,65.7,88.3,65.2,88.3,65.2z"/>
		<path class="st0" d="M88.9,65.9c0,0.3-0.3,0.6-0.6,0.8c-0.1,0.1-0.2,0.1-0.3,0.1c-0.2,0-0.4-0.1-0.6-0.4c0,0,0,0,0,0
			c-0.1-0.1-0.2-0.2-0.4-0.5c0-0.1-0.1-0.2-0.1-0.3c0-0.1,0-0.2,0-0.3c0-0.4,0.1-0.8,0.6-0.8h0.1c0.3,0,0.8,0,1.1,0.4
			c0,0,0,0.1,0.1,0.1C89,65.7,89,65.8,88.9,65.9z"/>
	</g>
	<g>
		<path d="M87.1,64.6c-0.1,0.1-0.3,0.1-0.3,0.2c-0.1,0.1-0.4,0.1-0.5,0.1c-0.1-0.1-0.1-0.7-0.1-0.8c0-0.1,0.2-0.3,0.3-0.2
			c0.1,0.1,0.3,0.5,0.3,0.5C86.9,64.4,87.2,64.5,87.1,64.6z"/>
		<path class="st0" d="M87.6,64.5c0,0.1,0,0.2,0,0.3c-0.1,0.3-0.4,0.4-0.5,0.4l0,0c0,0-0.1,0-0.1,0.1c-0.1,0.1-0.3,0.1-0.5,0.1
			c-0.2,0-0.3,0-0.5-0.1c-0.2-0.2-0.2-0.5-0.3-0.9c0-0.1,0-0.1,0-0.2c-0.1-0.2,0-0.5,0.3-0.7c0.1,0,0.1-0.1,0.2-0.1
			c0.2-0.1,0.4,0,0.6,0.1c0.1,0.1,0.2,0.2,0.3,0.4c0,0,0,0,0,0c0,0,0,0,0,0c0.2,0.1,0.3,0.2,0.4,0.3C87.6,64.4,87.6,64.4,87.6,64.5z
			"/>
	</g>
</g>
<g>
	<path d="M68.6,69.9l-9-12.6l0,3.1l-8-7.1l11.4,17L63,65L68.6,69.9z M55.1,57.2l5.1,4.6l0-2.5l4.6,6.4l-2.5-2.2l0.1,4.5L55.1,57.2z"
		/>
	<path class="st0" d="M71.8,73.3l-0.4-0.5l-0.4-0.5c-0.1,0.2-0.1,0.4-0.2,0.6l0.4,0.4l0.4,0.4l0.7,0.6L71.8,73.3z M68.6,69.9
		l-9-12.6l0,3.1l-8-7.1l11.4,17L63,65L68.6,69.9z M55.1,57.2l5.1,4.6l0-2.5l4.6,6.4l-2.5-2.2l0.1,4.5L55.1,57.2z"/>
</g>
<g>
	<polygon points="66.2,79.2 54.7,67 55.1,70 48,64.2 60.3,79.9 59.4,74.8 	"/>
	<path class="st0" d="M70.4,82.8L53.9,65.1l0.4,3.4l-9.3-7.7l-0.6-0.5l-0.6-0.5l0.6,0.8l0.6,0.8l16.5,21.1l-1.1-6.2L70.4,82.8z
		 M55.9,71.6l-0.3-2.7l6.3,6.7l-3.4-2.3l0.7,4l-6.9-8.8L55.9,71.6z"/>
</g>
<polygon points="62.3,63.5 62.3,68 55.1,57.2 60.2,61.8 60.2,59.3 64.8,65.7 "/>
<path class="st0" d="M68.6,69.9l-9-12.6l0,3.1l-8-7.1l11.4,17L63,65L68.6,69.9z M55.1,57.2l5.1,4.6l0-2.5l4.6,6.4l-2.5-2.2l0.1,4.5
	L55.1,57.2z"/>
<polygon points="66.2,79.2 54.7,67 55.1,70 48,64.2 60.3,79.9 59.4,74.8 "/>
<g>
	<polygon points="97,67.5 97.2,63.1 94,66 99.8,58.2 99.7,61.9 103.9,58 	"/>
</g>
<g>
	<polygon points="105,66.8 104.2,70.2 112.8,64.4 98.8,79.9 99.9,74.8 93.1,79.1 	"/>
	<path class="st0" d="M115.6,61.7l-0.6,0.4l-9.8,6.6l1-4.1L88.6,82.8l10.2-6.6l-1.3,6L115,63l0.6-0.7l1.2-1.4L115.6,61.7z
		 M99.9,77.7l0.9-4.3l-3.2,2.1l6.2-6.4l-0.6,2.7l5.5-3.7L99.9,77.7z"/>
</g>
<path class="st0" d="M108.3,52.9l-7.9,7.4l0.1-4.2L89.6,70.9l6.9-6.2l-0.2,5L108.3,52.9z M94,66l5.8-7.9l-0.1,3.7l4.2-3.9L97,67.5
	l0.2-4.4L94,66z"/>
<polygon points="97,67.5 97.2,63.1 94,66 99.8,58.2 99.7,61.9 103.9,58 "/>
<polygon points="105,66.8 104.2,70.2 112.8,64.4 98.8,79.9 99.9,74.8 93.1,79.1 "/>
</svg>
